%
M48
M72
T01C0.0236
T02C0.0360
T03C0.0400
T04C0.0650
%
T01
X5495Y19235
T02
X1109Y5704
X1109Y6704
X1109Y8369
X680Y10940
X680Y11940
X680Y12940
X680Y13940
X680Y14940
X680Y15940
X680Y16940
X680Y17940
X680Y18940
X680Y19940
X680Y20940
X680Y21940
X680Y22940
X680Y23940
X680Y24940
X2109Y8369
X2109Y6704
X2109Y5704
X3109Y5704
X3109Y6704
X3109Y8369
X4668Y6467
X4668Y5467
X6680Y10940
X6680Y11940
X6680Y12940
X6680Y13940
X6680Y14940
X6680Y15940
X6680Y16940
X6680Y17940
X6680Y18940
X6680Y19940
X6680Y20940
X6680Y21940
X6680Y22940
X6680Y23940
X6680Y24940
T03
X4684Y25692
X3684Y25692
X2684Y25692
T04
X680Y25940
X680Y9940
X6680Y9940
X6680Y25940
M30
