G75*
%MOIN*%
%OFA0B0*%
%FSLAX25Y25*%
%IPPOS*%
%LPD*%
%AMOC8*
5,1,8,0,0,1.08239X$1,22.5*
%
%ADD10C,0.01600*%
%ADD11C,0.00500*%
%ADD12C,0.00200*%
%ADD13C,0.00600*%
%ADD14C,0.00400*%
%ADD15C,0.00800*%
%ADD16R,0.03400X0.03000*%
%ADD17C,0.00300*%
D10*
X0016500Y0237598D02*
X0018700Y0239398D01*
X0016500Y0241198D01*
X0016500Y0237598D01*
X0017300Y0238398D02*
X0017300Y0240098D01*
X0018700Y0247498D02*
X0016500Y0249298D01*
X0018700Y0251098D01*
X0018700Y0247498D01*
X0017800Y0248498D02*
X0017800Y0249898D01*
X0026839Y0251918D02*
X0046839Y0251918D01*
X0046674Y0251677D01*
X0046504Y0251441D01*
X0046327Y0251208D01*
X0046146Y0250980D01*
X0045958Y0250757D01*
X0045766Y0250538D01*
X0045568Y0250323D01*
X0045365Y0250114D01*
X0045157Y0249910D01*
X0044944Y0249710D01*
X0044726Y0249516D01*
X0044504Y0249328D01*
X0044277Y0249144D01*
X0044046Y0248967D01*
X0043810Y0248795D01*
X0043571Y0248628D01*
X0043327Y0248468D01*
X0043080Y0248313D01*
X0042829Y0248165D01*
X0042574Y0248023D01*
X0042316Y0247887D01*
X0042055Y0247757D01*
X0041791Y0247634D01*
X0041524Y0247517D01*
X0041254Y0247406D01*
X0040981Y0247302D01*
X0040706Y0247205D01*
X0040429Y0247115D01*
X0040150Y0247031D01*
X0039868Y0246954D01*
X0039585Y0246884D01*
X0039300Y0246821D01*
X0039014Y0246765D01*
X0038727Y0246715D01*
X0038438Y0246673D01*
X0038149Y0246638D01*
X0037859Y0246609D01*
X0037568Y0246588D01*
X0037276Y0246574D01*
X0036985Y0246567D01*
X0036693Y0246567D01*
X0036402Y0246574D01*
X0036110Y0246588D01*
X0035819Y0246609D01*
X0035529Y0246638D01*
X0035240Y0246673D01*
X0034951Y0246715D01*
X0034664Y0246765D01*
X0034378Y0246821D01*
X0034093Y0246884D01*
X0033810Y0246954D01*
X0033528Y0247031D01*
X0033249Y0247115D01*
X0032972Y0247205D01*
X0032697Y0247302D01*
X0032424Y0247406D01*
X0032154Y0247517D01*
X0031887Y0247634D01*
X0031623Y0247757D01*
X0031362Y0247887D01*
X0031104Y0248023D01*
X0030849Y0248165D01*
X0030598Y0248313D01*
X0030351Y0248468D01*
X0030107Y0248628D01*
X0029868Y0248795D01*
X0029632Y0248967D01*
X0029401Y0249144D01*
X0029174Y0249328D01*
X0028952Y0249516D01*
X0028734Y0249710D01*
X0028521Y0249910D01*
X0028313Y0250114D01*
X0028110Y0250323D01*
X0027912Y0250538D01*
X0027720Y0250757D01*
X0027532Y0250980D01*
X0027351Y0251208D01*
X0027174Y0251441D01*
X0027004Y0251677D01*
X0026839Y0251918D01*
D11*
X0009280Y0046406D02*
X0009280Y0020186D01*
X0025028Y0020186D01*
X0025028Y0042469D01*
X0021091Y0046406D01*
X0009280Y0046406D01*
X0011648Y0105548D02*
X0011648Y0106900D01*
X0012098Y0107350D01*
X0013900Y0107350D01*
X0014350Y0106900D01*
X0014350Y0105548D01*
X0011648Y0105548D01*
X0012548Y0108495D02*
X0011648Y0109396D01*
X0014350Y0109396D01*
X0014350Y0110296D02*
X0014350Y0108495D01*
X0014350Y0111441D02*
X0012548Y0113243D01*
X0012098Y0113243D01*
X0011648Y0112793D01*
X0011648Y0111892D01*
X0012098Y0111441D01*
X0011648Y0115548D02*
X0011648Y0116900D01*
X0012098Y0117350D01*
X0013900Y0117350D01*
X0014350Y0116900D01*
X0014350Y0115548D01*
X0011648Y0115548D01*
X0012548Y0118495D02*
X0011648Y0119396D01*
X0014350Y0119396D01*
X0014350Y0120296D02*
X0014350Y0118495D01*
X0014350Y0121441D02*
X0014350Y0123243D01*
X0014350Y0122342D02*
X0011648Y0122342D01*
X0012548Y0121441D01*
X0011648Y0125448D02*
X0011648Y0126800D01*
X0012098Y0127250D01*
X0013900Y0127250D01*
X0014350Y0126800D01*
X0014350Y0125448D01*
X0011648Y0125448D01*
X0012548Y0128395D02*
X0011648Y0129296D01*
X0014350Y0129296D01*
X0014350Y0130196D02*
X0014350Y0128395D01*
X0013900Y0131341D02*
X0012098Y0133143D01*
X0013900Y0133143D01*
X0014350Y0132693D01*
X0014350Y0131792D01*
X0013900Y0131341D01*
X0012098Y0131341D01*
X0011648Y0131792D01*
X0011648Y0132693D01*
X0012098Y0133143D01*
X0011648Y0137048D02*
X0011648Y0138400D01*
X0012098Y0138850D01*
X0013900Y0138850D01*
X0014350Y0138400D01*
X0014350Y0137048D01*
X0011648Y0137048D01*
X0012098Y0139995D02*
X0011648Y0140445D01*
X0011648Y0141346D01*
X0012098Y0141796D01*
X0013900Y0141796D01*
X0014350Y0141346D01*
X0014350Y0140445D01*
X0013900Y0139995D01*
X0012999Y0140445D02*
X0012999Y0141796D01*
X0012999Y0140445D02*
X0012548Y0139995D01*
X0012098Y0139995D01*
X0011648Y0147148D02*
X0011648Y0148500D01*
X0012098Y0148950D01*
X0013900Y0148950D01*
X0014350Y0148500D01*
X0014350Y0147148D01*
X0011648Y0147148D01*
X0012098Y0150095D02*
X0011648Y0150545D01*
X0011648Y0151446D01*
X0012098Y0151896D01*
X0012548Y0151896D01*
X0012999Y0151446D01*
X0012999Y0150545D01*
X0012548Y0150095D01*
X0012098Y0150095D01*
X0012999Y0150545D02*
X0013449Y0150095D01*
X0013900Y0150095D01*
X0014350Y0150545D01*
X0014350Y0151446D01*
X0013900Y0151896D01*
X0013449Y0151896D01*
X0012999Y0151446D01*
X0014350Y0156948D02*
X0014350Y0158300D01*
X0013900Y0158750D01*
X0012098Y0158750D01*
X0011648Y0158300D01*
X0011648Y0156948D01*
X0014350Y0156948D01*
X0014350Y0159895D02*
X0013900Y0159895D01*
X0012098Y0161696D01*
X0011648Y0161696D01*
X0011648Y0159895D01*
X0011648Y0167048D02*
X0011648Y0168400D01*
X0012098Y0168850D01*
X0013900Y0168850D01*
X0014350Y0168400D01*
X0014350Y0167048D01*
X0011648Y0167048D01*
X0012999Y0169995D02*
X0012098Y0170896D01*
X0011648Y0171796D01*
X0012999Y0171346D02*
X0012999Y0169995D01*
X0013900Y0169995D01*
X0014350Y0170445D01*
X0014350Y0171346D01*
X0013900Y0171796D01*
X0013449Y0171796D01*
X0012999Y0171346D01*
X0011648Y0177248D02*
X0014350Y0177248D01*
X0014350Y0178600D01*
X0013900Y0179050D01*
X0012098Y0179050D01*
X0011648Y0178600D01*
X0011648Y0177248D01*
X0011648Y0180195D02*
X0012999Y0180195D01*
X0012548Y0181096D01*
X0012548Y0181546D01*
X0012999Y0181996D01*
X0013900Y0181996D01*
X0014350Y0181546D01*
X0014350Y0180645D01*
X0013900Y0180195D01*
X0014350Y0187048D02*
X0014350Y0188400D01*
X0013900Y0188850D01*
X0012098Y0188850D01*
X0011648Y0188400D01*
X0011648Y0187048D01*
X0014350Y0187048D01*
X0012999Y0189995D02*
X0012999Y0191796D01*
X0011648Y0191346D02*
X0012999Y0189995D01*
X0014350Y0191346D02*
X0011648Y0191346D01*
X0011648Y0197148D02*
X0011648Y0198500D01*
X0012098Y0198950D01*
X0013900Y0198950D01*
X0014350Y0198500D01*
X0014350Y0197148D01*
X0011648Y0197148D01*
X0012098Y0200095D02*
X0011648Y0200545D01*
X0011648Y0201446D01*
X0012098Y0201896D01*
X0012548Y0201896D01*
X0012999Y0201446D01*
X0013449Y0201896D01*
X0013900Y0201896D01*
X0014350Y0201446D01*
X0014350Y0200545D01*
X0013900Y0200095D01*
X0012999Y0200996D02*
X0012999Y0201446D01*
X0011648Y0206948D02*
X0014350Y0206948D01*
X0014350Y0208300D01*
X0013900Y0208750D01*
X0012098Y0208750D01*
X0011648Y0208300D01*
X0011648Y0206948D01*
X0012098Y0209895D02*
X0011648Y0210345D01*
X0011648Y0211246D01*
X0012098Y0211696D01*
X0012548Y0211696D01*
X0014350Y0209895D01*
X0014350Y0211696D01*
X0013900Y0215748D02*
X0014350Y0216199D01*
X0014350Y0217100D01*
X0013900Y0217550D01*
X0012999Y0217550D01*
X0012999Y0216649D01*
X0012098Y0215748D02*
X0013900Y0215748D01*
X0014350Y0218695D02*
X0011648Y0218695D01*
X0014350Y0220496D01*
X0011648Y0220496D01*
X0011648Y0221641D02*
X0011648Y0222993D01*
X0012098Y0223443D01*
X0013900Y0223443D01*
X0014350Y0222993D01*
X0014350Y0221641D01*
X0011648Y0221641D01*
X0012098Y0217550D02*
X0011648Y0217100D01*
X0011648Y0216199D01*
X0012098Y0215748D01*
X0011648Y0225748D02*
X0011648Y0227100D01*
X0012098Y0227550D01*
X0012999Y0227550D01*
X0013449Y0227100D01*
X0013449Y0225748D01*
X0014350Y0225748D02*
X0011648Y0225748D01*
X0012098Y0228695D02*
X0011648Y0229145D01*
X0011648Y0230046D01*
X0012098Y0230496D01*
X0012999Y0230046D02*
X0013449Y0230496D01*
X0013900Y0230496D01*
X0014350Y0230046D01*
X0014350Y0229145D01*
X0013900Y0228695D01*
X0014350Y0227550D02*
X0013449Y0226649D01*
X0012548Y0228695D02*
X0012999Y0229145D01*
X0012999Y0230046D01*
X0012548Y0228695D02*
X0012098Y0228695D01*
X0011648Y0231641D02*
X0011648Y0233443D01*
X0011648Y0232542D02*
X0014350Y0232542D01*
X0014350Y0235648D02*
X0011648Y0235648D01*
X0011648Y0237000D01*
X0012098Y0237450D01*
X0012999Y0237450D01*
X0013449Y0237000D01*
X0013449Y0235648D01*
X0013449Y0236549D02*
X0014350Y0237450D01*
X0014350Y0238595D02*
X0011648Y0240396D01*
X0012098Y0241541D02*
X0011648Y0241992D01*
X0011648Y0242893D01*
X0012098Y0243343D01*
X0013900Y0241541D01*
X0014350Y0241992D01*
X0014350Y0242893D01*
X0013900Y0243343D01*
X0012098Y0243343D01*
X0012098Y0241541D02*
X0013900Y0241541D01*
X0014350Y0240396D02*
X0011648Y0238595D01*
X0011648Y0245648D02*
X0011648Y0247450D01*
X0011648Y0246549D02*
X0014350Y0246549D01*
X0014350Y0248595D02*
X0011648Y0250396D01*
X0012548Y0251541D02*
X0011648Y0252442D01*
X0014350Y0252442D01*
X0014350Y0251541D02*
X0014350Y0253343D01*
X0014350Y0250396D02*
X0011648Y0248595D01*
X0009280Y0269792D02*
X0005343Y0273729D01*
X0005343Y0296013D01*
X0021091Y0296013D01*
X0021091Y0269792D01*
X0009280Y0269792D01*
X0021839Y0261918D02*
X0021839Y0251918D01*
X0026839Y0251918D01*
X0021839Y0261918D02*
X0051839Y0261918D01*
X0051839Y0251918D01*
X0046839Y0251918D01*
X0052981Y0270186D02*
X0052981Y0296406D01*
X0064792Y0296406D01*
X0068729Y0292469D01*
X0068729Y0270186D01*
X0052981Y0270186D01*
X0049950Y0288414D02*
X0023729Y0288414D01*
X0023729Y0300225D01*
X0027666Y0304162D01*
X0049950Y0304162D01*
X0049950Y0288414D01*
X0059248Y0253761D02*
X0061950Y0253761D01*
X0059248Y0251959D01*
X0061950Y0251959D01*
X0061950Y0250896D02*
X0061950Y0249995D01*
X0061950Y0250445D02*
X0059248Y0250445D01*
X0059248Y0249995D02*
X0059248Y0250896D01*
X0059248Y0248850D02*
X0061049Y0248850D01*
X0061950Y0247949D01*
X0061049Y0247048D01*
X0059248Y0247048D01*
X0059698Y0244843D02*
X0059248Y0244393D01*
X0059248Y0243041D01*
X0061950Y0243041D01*
X0061950Y0244393D01*
X0061500Y0244843D01*
X0059698Y0244843D01*
X0059248Y0241896D02*
X0061950Y0241896D01*
X0059248Y0240095D01*
X0061950Y0240095D01*
X0061500Y0238950D02*
X0060599Y0238950D01*
X0060599Y0238049D01*
X0059698Y0237148D02*
X0061500Y0237148D01*
X0061950Y0237599D01*
X0061950Y0238500D01*
X0061500Y0238950D01*
X0061950Y0233642D02*
X0059248Y0233642D01*
X0059248Y0232741D02*
X0059248Y0234543D01*
X0059698Y0237148D02*
X0059248Y0237599D01*
X0059248Y0238500D01*
X0059698Y0238950D01*
X0059698Y0231596D02*
X0059248Y0231146D01*
X0059248Y0230245D01*
X0059698Y0229795D01*
X0060148Y0229795D01*
X0060599Y0230245D01*
X0060599Y0231146D01*
X0061049Y0231596D01*
X0061500Y0231596D01*
X0061950Y0231146D01*
X0061950Y0230245D01*
X0061500Y0229795D01*
X0061950Y0228650D02*
X0061049Y0227749D01*
X0061049Y0228200D02*
X0061049Y0226848D01*
X0061950Y0226848D02*
X0059248Y0226848D01*
X0059248Y0228200D01*
X0059698Y0228650D01*
X0060599Y0228650D01*
X0061049Y0228200D01*
X0061049Y0221596D02*
X0059248Y0221596D01*
X0059248Y0219795D02*
X0061049Y0219795D01*
X0061950Y0220696D01*
X0061049Y0221596D01*
X0060599Y0218650D02*
X0061500Y0218650D01*
X0061950Y0218200D01*
X0061950Y0217299D01*
X0061500Y0216848D01*
X0060599Y0216848D02*
X0060148Y0217749D01*
X0060148Y0218200D01*
X0060599Y0218650D01*
X0059248Y0218650D02*
X0059248Y0216848D01*
X0060599Y0216848D01*
X0059698Y0211596D02*
X0061500Y0209795D01*
X0061950Y0209795D01*
X0061950Y0208650D02*
X0060148Y0208650D01*
X0059248Y0207749D01*
X0060148Y0206848D01*
X0061950Y0206848D01*
X0060599Y0206848D02*
X0060599Y0208650D01*
X0059248Y0209795D02*
X0059248Y0211596D01*
X0059698Y0211596D01*
X0059248Y0201696D02*
X0059698Y0200796D01*
X0060599Y0199895D01*
X0060599Y0201246D01*
X0061049Y0201696D01*
X0061500Y0201696D01*
X0061950Y0201246D01*
X0061950Y0200345D01*
X0061500Y0199895D01*
X0060599Y0199895D01*
X0060599Y0198750D02*
X0060599Y0196948D01*
X0060148Y0196948D02*
X0059248Y0197849D01*
X0060148Y0198750D01*
X0061950Y0198750D01*
X0061950Y0196948D02*
X0060148Y0196948D01*
X0060599Y0191696D02*
X0061500Y0191696D01*
X0061950Y0191246D01*
X0061950Y0190345D01*
X0061500Y0189895D01*
X0061950Y0188750D02*
X0060148Y0188750D01*
X0059248Y0187849D01*
X0060148Y0186948D01*
X0061950Y0186948D01*
X0060599Y0186948D02*
X0060599Y0188750D01*
X0060599Y0189895D02*
X0060148Y0190796D01*
X0060148Y0191246D01*
X0060599Y0191696D01*
X0059248Y0191696D02*
X0059248Y0189895D01*
X0060599Y0189895D01*
X0060599Y0181596D02*
X0060599Y0179795D01*
X0059248Y0181146D01*
X0061950Y0181146D01*
X0061950Y0178650D02*
X0060148Y0178650D01*
X0059248Y0177749D01*
X0060148Y0176848D01*
X0061950Y0176848D01*
X0060599Y0176848D02*
X0060599Y0178650D01*
X0061049Y0171696D02*
X0060599Y0171246D01*
X0060599Y0170796D01*
X0060599Y0171246D02*
X0060148Y0171696D01*
X0059698Y0171696D01*
X0059248Y0171246D01*
X0059248Y0170345D01*
X0059698Y0169895D01*
X0060148Y0168750D02*
X0059248Y0167849D01*
X0060148Y0166948D01*
X0061950Y0166948D01*
X0061950Y0168750D02*
X0060148Y0168750D01*
X0060599Y0168750D02*
X0060599Y0166948D01*
X0061049Y0171696D02*
X0061500Y0171696D01*
X0061950Y0171246D01*
X0061950Y0170345D01*
X0061500Y0169895D01*
X0061950Y0161696D02*
X0061950Y0159895D01*
X0060148Y0161696D01*
X0059698Y0161696D01*
X0059248Y0161246D01*
X0059248Y0160345D01*
X0059698Y0159895D01*
X0060148Y0158750D02*
X0059248Y0157849D01*
X0060148Y0156948D01*
X0061950Y0156948D01*
X0061950Y0158750D02*
X0060148Y0158750D01*
X0060599Y0158750D02*
X0060599Y0156948D01*
X0061950Y0151796D02*
X0061950Y0149995D01*
X0061950Y0150896D02*
X0059248Y0150896D01*
X0060148Y0149995D01*
X0060148Y0148850D02*
X0061950Y0148850D01*
X0061950Y0147048D02*
X0060148Y0147048D01*
X0059248Y0147949D01*
X0060148Y0148850D01*
X0060599Y0148850D02*
X0060599Y0147048D01*
X0059698Y0141696D02*
X0061500Y0141696D01*
X0061950Y0141246D01*
X0061950Y0140345D01*
X0061500Y0139895D01*
X0059698Y0141696D01*
X0059248Y0141246D01*
X0059248Y0140345D01*
X0059698Y0139895D01*
X0061500Y0139895D01*
X0061950Y0138750D02*
X0060148Y0138750D01*
X0059248Y0137849D01*
X0060148Y0136948D01*
X0061950Y0136948D01*
X0060599Y0136948D02*
X0060599Y0138750D01*
X0059248Y0133243D02*
X0059248Y0131441D01*
X0061950Y0131441D01*
X0061950Y0130296D02*
X0061950Y0128495D01*
X0059248Y0128495D01*
X0059248Y0130296D01*
X0060599Y0129396D02*
X0060599Y0128495D01*
X0060599Y0127350D02*
X0061049Y0126900D01*
X0061049Y0125548D01*
X0061950Y0125548D02*
X0059248Y0125548D01*
X0059248Y0126900D01*
X0059698Y0127350D01*
X0060599Y0127350D01*
X0061049Y0126449D02*
X0061950Y0127350D01*
X0061500Y0123343D02*
X0061049Y0123343D01*
X0060599Y0122893D01*
X0060599Y0122442D01*
X0060599Y0122893D02*
X0060148Y0123343D01*
X0059698Y0123343D01*
X0059248Y0122893D01*
X0059248Y0121992D01*
X0059698Y0121541D01*
X0059248Y0120396D02*
X0061049Y0120396D01*
X0061950Y0119496D01*
X0061049Y0118595D01*
X0059248Y0118595D01*
X0059698Y0117450D02*
X0060148Y0117450D01*
X0060599Y0117000D01*
X0061049Y0117450D01*
X0061500Y0117450D01*
X0061950Y0117000D01*
X0061950Y0116099D01*
X0061500Y0115648D01*
X0061500Y0113243D02*
X0061049Y0113243D01*
X0060599Y0112793D01*
X0060599Y0112342D01*
X0060599Y0112793D02*
X0060148Y0113243D01*
X0059698Y0113243D01*
X0059248Y0112793D01*
X0059248Y0111892D01*
X0059698Y0111441D01*
X0059248Y0109396D02*
X0061950Y0109396D01*
X0061950Y0110296D02*
X0061950Y0108495D01*
X0061500Y0107350D02*
X0059698Y0107350D01*
X0059248Y0106900D01*
X0059248Y0105548D01*
X0061950Y0105548D01*
X0061950Y0106900D01*
X0061500Y0107350D01*
X0060148Y0108495D02*
X0059248Y0109396D01*
X0059698Y0115648D02*
X0059248Y0116099D01*
X0059248Y0117000D01*
X0059698Y0117450D01*
X0060599Y0117000D02*
X0060599Y0116549D01*
X0061500Y0113243D02*
X0061950Y0112793D01*
X0061950Y0111892D01*
X0061500Y0111441D01*
X0061500Y0121541D02*
X0061950Y0121992D01*
X0061950Y0122893D01*
X0061500Y0123343D01*
X0060599Y0131441D02*
X0060599Y0132342D01*
X0066367Y0046406D02*
X0050619Y0046406D01*
X0050619Y0024123D01*
X0054556Y0020186D01*
X0066367Y0020186D01*
X0066367Y0046406D01*
X0050343Y0020698D02*
X0050343Y0004950D01*
X0024123Y0004950D01*
X0024123Y0016761D01*
X0028060Y0020698D01*
X0050343Y0020698D01*
X0014350Y0111441D02*
X0014350Y0113243D01*
X0011648Y0180195D02*
X0011648Y0181996D01*
D12*
X0011200Y0177099D02*
X0009999Y0175898D01*
X0010599Y0175898D02*
X0010599Y0177099D01*
X0009999Y0177099D02*
X0011200Y0175898D01*
X0011200Y0176499D02*
X0009999Y0176499D01*
X0009999Y0166999D02*
X0011200Y0165798D01*
X0010599Y0165798D02*
X0010599Y0166999D01*
X0011200Y0166999D02*
X0009999Y0165798D01*
X0009999Y0166399D02*
X0011200Y0166399D01*
X0011200Y0136999D02*
X0009999Y0135798D01*
X0010599Y0135798D02*
X0010599Y0136999D01*
X0009999Y0136999D02*
X0011200Y0135798D01*
X0011200Y0136399D02*
X0009999Y0136399D01*
X0009999Y0126899D02*
X0011200Y0125698D01*
X0010599Y0125698D02*
X0010599Y0126899D01*
X0011200Y0126899D02*
X0009999Y0125698D01*
X0009999Y0126299D02*
X0011200Y0126299D01*
X0011200Y0116999D02*
X0009999Y0115798D01*
X0010599Y0115798D02*
X0010599Y0116999D01*
X0009999Y0116999D02*
X0011200Y0115798D01*
X0011200Y0116399D02*
X0009999Y0116399D01*
X0009999Y0195798D02*
X0011200Y0196999D01*
X0011200Y0196399D02*
X0009999Y0196399D01*
X0009999Y0196999D02*
X0011200Y0195798D01*
X0010599Y0195798D02*
X0010599Y0196999D01*
D13*
X0023354Y0144615D02*
X0023354Y0140345D01*
X0029760Y0140345D01*
X0029760Y0144615D01*
X0029760Y0138170D02*
X0027625Y0136035D01*
X0027625Y0137102D02*
X0027625Y0133899D01*
X0027625Y0137102D02*
X0026557Y0138170D01*
X0024422Y0138170D01*
X0023354Y0137102D01*
X0023354Y0133899D01*
X0029760Y0133899D01*
X0028692Y0125279D02*
X0026557Y0125279D01*
X0026557Y0123144D01*
X0024422Y0125279D02*
X0023354Y0124211D01*
X0023354Y0122076D01*
X0024422Y0121008D01*
X0028692Y0121008D01*
X0029760Y0122076D01*
X0029760Y0124211D01*
X0028692Y0125279D01*
X0028692Y0118833D02*
X0029760Y0117766D01*
X0029760Y0115630D01*
X0028692Y0114563D01*
X0024422Y0114563D01*
X0023354Y0115630D01*
X0023354Y0117766D01*
X0024422Y0118833D01*
X0026557Y0140345D02*
X0026557Y0142480D01*
X0033854Y0143548D02*
X0033854Y0140345D01*
X0040260Y0140345D01*
X0040260Y0143548D01*
X0039192Y0144615D01*
X0038125Y0144615D01*
X0037057Y0143548D01*
X0037057Y0140345D01*
X0037057Y0143548D02*
X0035990Y0144615D01*
X0034922Y0144615D01*
X0033854Y0143548D01*
X0034922Y0138170D02*
X0033854Y0137102D01*
X0033854Y0133899D01*
X0040260Y0133899D01*
X0040260Y0137102D01*
X0039192Y0138170D01*
X0034922Y0138170D01*
X0033854Y0125279D02*
X0038125Y0121008D01*
X0039192Y0118833D02*
X0034922Y0118833D01*
X0033854Y0117766D01*
X0033854Y0114563D01*
X0040260Y0114563D01*
X0040260Y0117766D01*
X0039192Y0118833D01*
X0040260Y0121008D02*
X0033854Y0121008D01*
X0037057Y0122076D02*
X0040260Y0125279D01*
X0044354Y0125279D02*
X0050760Y0125279D01*
X0050760Y0121008D02*
X0044354Y0121008D01*
X0044354Y0118833D02*
X0048625Y0118833D01*
X0050760Y0116698D01*
X0048625Y0114563D01*
X0044354Y0114563D01*
X0047557Y0121008D02*
X0047557Y0125279D01*
X0047557Y0133899D02*
X0047557Y0138170D01*
X0045422Y0146790D02*
X0044354Y0147858D01*
X0044354Y0149993D01*
X0045422Y0151061D01*
X0046490Y0151061D01*
X0050760Y0146790D01*
X0050760Y0151061D01*
X0049692Y0153236D02*
X0045422Y0157506D01*
X0049692Y0157506D01*
X0050760Y0156439D01*
X0050760Y0154303D01*
X0049692Y0153236D01*
X0045422Y0153236D01*
X0044354Y0154303D01*
X0044354Y0156439D01*
X0045422Y0157506D01*
X0046490Y0159681D02*
X0044354Y0161816D01*
X0050760Y0161816D01*
X0050760Y0159681D02*
X0050760Y0163952D01*
X0049692Y0166127D02*
X0050760Y0167194D01*
X0050760Y0169330D01*
X0049692Y0170397D01*
X0047557Y0170397D01*
X0046490Y0169330D01*
X0046490Y0168262D01*
X0047557Y0166127D01*
X0044354Y0166127D01*
X0044354Y0170397D01*
X0035091Y0088690D02*
X0036091Y0087690D01*
X0036091Y0079690D01*
X0035091Y0078690D01*
X0034591Y0072036D02*
X0036091Y0070536D01*
X0036091Y0053536D01*
X0034591Y0052036D01*
X0027591Y0052036D01*
X0026091Y0053536D01*
X0024591Y0052036D01*
X0017591Y0052036D01*
X0016091Y0053536D01*
X0014591Y0052036D01*
X0007591Y0052036D01*
X0006091Y0053536D01*
X0006091Y0070536D01*
X0007591Y0072036D01*
X0014591Y0072036D01*
X0016091Y0070536D01*
X0017591Y0072036D01*
X0024591Y0072036D01*
X0026091Y0070536D01*
X0027591Y0072036D01*
X0034591Y0072036D01*
X0041682Y0068674D02*
X0042682Y0069674D01*
X0050682Y0069674D01*
X0051682Y0068674D01*
X0051682Y0060674D02*
X0050682Y0059674D01*
X0051682Y0058674D01*
X0051682Y0050674D02*
X0050682Y0049674D01*
X0042682Y0049674D01*
X0041682Y0050674D01*
X0041682Y0058674D02*
X0042682Y0059674D01*
X0041682Y0060674D01*
X0041713Y0040190D02*
X0047713Y0040190D01*
X0047773Y0040188D01*
X0047834Y0040183D01*
X0047893Y0040174D01*
X0047952Y0040161D01*
X0048011Y0040145D01*
X0048068Y0040125D01*
X0048123Y0040102D01*
X0048178Y0040075D01*
X0048230Y0040046D01*
X0048281Y0040013D01*
X0048330Y0039977D01*
X0048376Y0039939D01*
X0048420Y0039897D01*
X0048462Y0039853D01*
X0048500Y0039807D01*
X0048536Y0039758D01*
X0048569Y0039707D01*
X0048598Y0039655D01*
X0048625Y0039600D01*
X0048648Y0039545D01*
X0048668Y0039488D01*
X0048684Y0039429D01*
X0048697Y0039370D01*
X0048706Y0039311D01*
X0048711Y0039250D01*
X0048713Y0039190D01*
X0048713Y0028190D01*
X0048711Y0028130D01*
X0048706Y0028069D01*
X0048697Y0028010D01*
X0048684Y0027951D01*
X0048668Y0027892D01*
X0048648Y0027835D01*
X0048625Y0027780D01*
X0048598Y0027725D01*
X0048569Y0027673D01*
X0048536Y0027622D01*
X0048500Y0027573D01*
X0048462Y0027527D01*
X0048420Y0027483D01*
X0048376Y0027441D01*
X0048330Y0027403D01*
X0048281Y0027367D01*
X0048230Y0027334D01*
X0048178Y0027305D01*
X0048123Y0027278D01*
X0048068Y0027255D01*
X0048011Y0027235D01*
X0047952Y0027219D01*
X0047893Y0027206D01*
X0047834Y0027197D01*
X0047773Y0027192D01*
X0047713Y0027190D01*
X0041713Y0027190D01*
X0041653Y0027192D01*
X0041592Y0027197D01*
X0041533Y0027206D01*
X0041474Y0027219D01*
X0041415Y0027235D01*
X0041358Y0027255D01*
X0041303Y0027278D01*
X0041248Y0027305D01*
X0041196Y0027334D01*
X0041145Y0027367D01*
X0041096Y0027403D01*
X0041050Y0027441D01*
X0041006Y0027483D01*
X0040964Y0027527D01*
X0040926Y0027573D01*
X0040890Y0027622D01*
X0040857Y0027673D01*
X0040828Y0027725D01*
X0040801Y0027780D01*
X0040778Y0027835D01*
X0040758Y0027892D01*
X0040742Y0027951D01*
X0040729Y0028010D01*
X0040720Y0028069D01*
X0040715Y0028130D01*
X0040713Y0028190D01*
X0040713Y0039190D01*
X0040715Y0039250D01*
X0040720Y0039311D01*
X0040729Y0039370D01*
X0040742Y0039429D01*
X0040758Y0039488D01*
X0040778Y0039545D01*
X0040801Y0039600D01*
X0040828Y0039655D01*
X0040857Y0039707D01*
X0040890Y0039758D01*
X0040926Y0039807D01*
X0040964Y0039853D01*
X0041006Y0039897D01*
X0041050Y0039939D01*
X0041096Y0039977D01*
X0041145Y0040013D01*
X0041196Y0040046D01*
X0041248Y0040075D01*
X0041303Y0040102D01*
X0041358Y0040125D01*
X0041415Y0040145D01*
X0041474Y0040161D01*
X0041533Y0040174D01*
X0041592Y0040183D01*
X0041653Y0040188D01*
X0041713Y0040190D01*
X0054069Y0054909D02*
X0058339Y0054909D01*
X0056204Y0057044D02*
X0056204Y0052774D01*
X0054856Y0065145D02*
X0059126Y0065145D01*
X0060756Y0064966D02*
X0067161Y0064966D01*
X0067161Y0060656D02*
X0062891Y0060656D01*
X0060756Y0058521D01*
X0062891Y0056386D01*
X0067161Y0056386D01*
X0066094Y0054210D02*
X0067161Y0053143D01*
X0067161Y0049940D01*
X0060756Y0049940D01*
X0060756Y0053143D01*
X0061824Y0054210D01*
X0062891Y0054210D01*
X0063959Y0053143D01*
X0063959Y0049940D01*
X0063959Y0053143D02*
X0065026Y0054210D01*
X0066094Y0054210D01*
X0063959Y0056386D02*
X0063959Y0060656D01*
X0060756Y0062831D02*
X0060756Y0067101D01*
X0060756Y0069277D02*
X0060756Y0073547D01*
X0060756Y0071412D02*
X0067161Y0071412D01*
X0027091Y0078690D02*
X0026091Y0079690D01*
X0025091Y0078690D01*
X0026091Y0087690D02*
X0025091Y0088690D01*
X0026091Y0087690D02*
X0027091Y0088690D01*
X0017091Y0088690D02*
X0016091Y0087690D01*
X0015091Y0088690D01*
X0016091Y0079690D02*
X0015091Y0078690D01*
X0016091Y0079690D02*
X0017091Y0078690D01*
X0007091Y0078690D02*
X0006091Y0079690D01*
X0006091Y0087690D01*
X0007091Y0088690D01*
X0043682Y0273646D02*
X0049682Y0273646D01*
X0049742Y0273648D01*
X0049803Y0273653D01*
X0049862Y0273662D01*
X0049921Y0273675D01*
X0049980Y0273691D01*
X0050037Y0273711D01*
X0050092Y0273734D01*
X0050147Y0273761D01*
X0050199Y0273790D01*
X0050250Y0273823D01*
X0050299Y0273859D01*
X0050345Y0273897D01*
X0050389Y0273939D01*
X0050431Y0273983D01*
X0050469Y0274029D01*
X0050505Y0274078D01*
X0050538Y0274129D01*
X0050567Y0274181D01*
X0050594Y0274236D01*
X0050617Y0274291D01*
X0050637Y0274348D01*
X0050653Y0274407D01*
X0050666Y0274466D01*
X0050675Y0274525D01*
X0050680Y0274586D01*
X0050682Y0274646D01*
X0050682Y0285646D01*
X0050680Y0285706D01*
X0050675Y0285767D01*
X0050666Y0285826D01*
X0050653Y0285885D01*
X0050637Y0285944D01*
X0050617Y0286001D01*
X0050594Y0286056D01*
X0050567Y0286111D01*
X0050538Y0286163D01*
X0050505Y0286214D01*
X0050469Y0286263D01*
X0050431Y0286309D01*
X0050389Y0286353D01*
X0050345Y0286395D01*
X0050299Y0286433D01*
X0050250Y0286469D01*
X0050199Y0286502D01*
X0050147Y0286531D01*
X0050092Y0286558D01*
X0050037Y0286581D01*
X0049980Y0286601D01*
X0049921Y0286617D01*
X0049862Y0286630D01*
X0049803Y0286639D01*
X0049742Y0286644D01*
X0049682Y0286646D01*
X0043682Y0286646D01*
X0043622Y0286644D01*
X0043561Y0286639D01*
X0043502Y0286630D01*
X0043443Y0286617D01*
X0043384Y0286601D01*
X0043327Y0286581D01*
X0043272Y0286558D01*
X0043217Y0286531D01*
X0043165Y0286502D01*
X0043114Y0286469D01*
X0043065Y0286433D01*
X0043019Y0286395D01*
X0042975Y0286353D01*
X0042933Y0286309D01*
X0042895Y0286263D01*
X0042859Y0286214D01*
X0042826Y0286163D01*
X0042797Y0286111D01*
X0042770Y0286056D01*
X0042747Y0286001D01*
X0042727Y0285944D01*
X0042711Y0285885D01*
X0042698Y0285826D01*
X0042689Y0285767D01*
X0042684Y0285706D01*
X0042682Y0285646D01*
X0042682Y0274646D01*
X0042684Y0274586D01*
X0042689Y0274525D01*
X0042698Y0274466D01*
X0042711Y0274407D01*
X0042727Y0274348D01*
X0042747Y0274291D01*
X0042770Y0274236D01*
X0042797Y0274181D01*
X0042826Y0274129D01*
X0042859Y0274078D01*
X0042895Y0274029D01*
X0042933Y0273983D01*
X0042975Y0273939D01*
X0043019Y0273897D01*
X0043065Y0273859D01*
X0043114Y0273823D01*
X0043165Y0273790D01*
X0043217Y0273761D01*
X0043272Y0273734D01*
X0043327Y0273711D01*
X0043384Y0273691D01*
X0043443Y0273675D01*
X0043502Y0273662D01*
X0043561Y0273653D01*
X0043622Y0273648D01*
X0043682Y0273646D01*
D14*
X0027510Y0067294D02*
X0024441Y0067294D01*
D15*
X0023717Y0199320D02*
X0023719Y0222920D01*
X0023717Y0199320D02*
X0049520Y0199320D01*
X0049519Y0222920D01*
D16*
X0036619Y0197420D03*
D17*
X0036791Y0077043D02*
X0039260Y0077043D01*
X0038025Y0077043D02*
X0038025Y0073340D01*
X0035576Y0077043D02*
X0033108Y0077043D01*
X0034342Y0077043D02*
X0034342Y0073340D01*
X0031893Y0073340D02*
X0031893Y0075809D01*
X0030659Y0077043D01*
X0029424Y0075809D01*
X0029424Y0073340D01*
X0029424Y0075191D02*
X0031893Y0075191D01*
X0028210Y0074574D02*
X0028210Y0073957D01*
X0027593Y0073340D01*
X0025741Y0073340D01*
X0025741Y0077043D01*
X0027593Y0077043D01*
X0028210Y0076426D01*
X0028210Y0075809D01*
X0027593Y0075191D01*
X0025741Y0075191D01*
X0027593Y0075191D02*
X0028210Y0074574D01*
X0021210Y0073957D02*
X0021210Y0075191D01*
X0019976Y0075191D01*
X0021210Y0073957D02*
X0020593Y0073340D01*
X0019359Y0073340D01*
X0018741Y0073957D01*
X0018741Y0076426D01*
X0019359Y0077043D01*
X0020593Y0077043D01*
X0021210Y0076426D01*
X0012893Y0077043D02*
X0010424Y0077043D01*
X0010424Y0075191D01*
X0011659Y0075809D01*
X0012276Y0075809D01*
X0012893Y0075191D01*
X0012893Y0073957D01*
X0012276Y0073340D01*
X0011042Y0073340D01*
X0010424Y0073957D01*
X0009210Y0075191D02*
X0006741Y0075191D01*
X0007976Y0073957D02*
X0007976Y0076426D01*
M02*
