G75*
%MOIN*%
%OFA0B0*%
%FSLAX25Y25*%
%IPPOS*%
%LPD*%
%AMOC8*
5,1,8,0,0,1.08239X$1,22.5*
%
%ADD10R,0.07000X0.07000*%
%ADD11C,0.07000*%
%ADD12R,0.07600X0.07600*%
%ADD13C,0.07600*%
%ADD14C,0.05400*%
%ADD15OC8,0.05400*%
%ADD16C,0.00800*%
%ADD17C,0.01600*%
%ADD18R,0.03762X0.03762*%
D10*
X0006800Y0249398D03*
D11*
X0006800Y0239398D03*
X0006800Y0229398D03*
X0006800Y0219398D03*
X0006800Y0209398D03*
X0006800Y0199398D03*
X0006800Y0189398D03*
X0006800Y0179398D03*
X0006800Y0169398D03*
X0006800Y0159398D03*
X0006800Y0149398D03*
X0006800Y0139398D03*
X0006800Y0129398D03*
X0006800Y0119398D03*
X0006800Y0109398D03*
X0066800Y0109398D03*
X0066800Y0119398D03*
X0066800Y0129398D03*
X0066800Y0139398D03*
X0066800Y0149398D03*
X0066800Y0159398D03*
X0066800Y0169398D03*
X0066800Y0179398D03*
X0066800Y0189398D03*
X0066800Y0199398D03*
X0066800Y0209398D03*
X0066800Y0219398D03*
X0066800Y0229398D03*
X0066800Y0239398D03*
X0066800Y0249398D03*
D12*
X0026839Y0256918D03*
D13*
X0036839Y0256918D03*
X0046839Y0256918D03*
D14*
X0031091Y0086390D02*
X0031091Y0080990D01*
X0021091Y0080990D02*
X0021091Y0086390D01*
X0011091Y0086390D02*
X0011091Y0080990D01*
X0043982Y0064674D02*
X0049382Y0064674D01*
X0049382Y0054674D02*
X0043982Y0054674D01*
D15*
X0031091Y0057036D03*
X0031091Y0067036D03*
X0021091Y0067036D03*
X0021091Y0057036D03*
X0011091Y0057036D03*
X0011091Y0067036D03*
D16*
X0066600Y0218600D02*
X0055387Y0230600D01*
X0055387Y0244200D01*
X0047400Y0251400D01*
X0047400Y0256200D01*
X0046839Y0256918D01*
X0066800Y0219398D02*
X0066600Y0218600D01*
D17*
X0004100Y0094419D02*
X0004100Y0004100D01*
X0069500Y0004100D01*
X0069500Y0094400D01*
X0067499Y0093641D01*
X0067499Y0093641D01*
X0065788Y0093848D01*
X0065696Y0093848D01*
X0065658Y0093864D01*
X0064743Y0093975D01*
X0064743Y0093975D01*
X0063773Y0094645D01*
X0063656Y0094693D01*
X0063552Y0094798D01*
X0062459Y0095552D01*
X0062459Y0095552D01*
X0062459Y0095552D01*
X0061169Y0098010D01*
X0061169Y0100786D01*
X0062459Y0103245D01*
X0062459Y0103245D01*
X0063552Y0103999D01*
X0063656Y0104103D01*
X0063773Y0104152D01*
X0064743Y0104822D01*
X0064743Y0104822D01*
X0064977Y0104850D01*
X0064024Y0105244D01*
X0062646Y0106623D01*
X0061900Y0108424D01*
X0061900Y0110373D01*
X0062646Y0112174D01*
X0064024Y0113552D01*
X0065825Y0114298D01*
X0067775Y0114298D01*
X0069500Y0113584D01*
X0069500Y0115213D01*
X0067775Y0114498D01*
X0065825Y0114498D01*
X0064024Y0115244D01*
X0062646Y0116623D01*
X0061900Y0118424D01*
X0061900Y0120373D01*
X0062646Y0122174D01*
X0064024Y0123552D01*
X0065825Y0124298D01*
X0067775Y0124298D01*
X0069500Y0123584D01*
X0069500Y0125213D01*
X0067775Y0124498D01*
X0065825Y0124498D01*
X0064024Y0125244D01*
X0062646Y0126623D01*
X0061900Y0128424D01*
X0061900Y0130373D01*
X0062646Y0132174D01*
X0064024Y0133552D01*
X0065825Y0134298D01*
X0067775Y0134298D01*
X0069500Y0133584D01*
X0069500Y0135213D01*
X0067775Y0134498D01*
X0065825Y0134498D01*
X0064024Y0135244D01*
X0062646Y0136623D01*
X0061900Y0138424D01*
X0061900Y0140373D01*
X0062646Y0142174D01*
X0064024Y0143552D01*
X0065825Y0144298D01*
X0067775Y0144298D01*
X0069500Y0143584D01*
X0069500Y0145213D01*
X0067775Y0144498D01*
X0065825Y0144498D01*
X0064024Y0145244D01*
X0062646Y0146623D01*
X0061900Y0148424D01*
X0061900Y0150373D01*
X0062646Y0152174D01*
X0064024Y0153552D01*
X0065825Y0154298D01*
X0067775Y0154298D01*
X0069500Y0153584D01*
X0069500Y0155213D01*
X0067775Y0154498D01*
X0065825Y0154498D01*
X0064024Y0155244D01*
X0062646Y0156623D01*
X0061900Y0158424D01*
X0061900Y0160373D01*
X0062646Y0162174D01*
X0064024Y0163552D01*
X0065825Y0164298D01*
X0067775Y0164298D01*
X0069500Y0163584D01*
X0069500Y0165213D01*
X0067775Y0164498D01*
X0065825Y0164498D01*
X0064024Y0165244D01*
X0062646Y0166623D01*
X0061900Y0168424D01*
X0061900Y0170373D01*
X0062646Y0172174D01*
X0064024Y0173552D01*
X0065825Y0174298D01*
X0067775Y0174298D01*
X0069500Y0173584D01*
X0069500Y0175213D01*
X0067775Y0174498D01*
X0065825Y0174498D01*
X0064024Y0175244D01*
X0062646Y0176623D01*
X0061900Y0178424D01*
X0061900Y0180373D01*
X0062646Y0182174D01*
X0064024Y0183552D01*
X0065825Y0184298D01*
X0067775Y0184298D01*
X0069500Y0183584D01*
X0069500Y0185213D01*
X0067775Y0184498D01*
X0065825Y0184498D01*
X0064024Y0185244D01*
X0062646Y0186623D01*
X0061900Y0188424D01*
X0061900Y0190373D01*
X0062646Y0192174D01*
X0064024Y0193552D01*
X0065825Y0194298D01*
X0067775Y0194298D01*
X0069500Y0193584D01*
X0069500Y0195213D01*
X0067775Y0194498D01*
X0065825Y0194498D01*
X0064024Y0195244D01*
X0062646Y0196623D01*
X0061900Y0198424D01*
X0061900Y0200373D01*
X0062646Y0202174D01*
X0064024Y0203552D01*
X0065825Y0204298D01*
X0067775Y0204298D01*
X0069500Y0203584D01*
X0069500Y0205213D01*
X0067775Y0204498D01*
X0065825Y0204498D01*
X0064024Y0205244D01*
X0062646Y0206623D01*
X0061900Y0208424D01*
X0061900Y0210373D01*
X0062646Y0212174D01*
X0064024Y0213552D01*
X0065825Y0214298D01*
X0067775Y0214298D01*
X0069500Y0213584D01*
X0069500Y0215213D01*
X0067775Y0214498D01*
X0065825Y0214498D01*
X0064024Y0215244D01*
X0062646Y0216623D01*
X0061900Y0218424D01*
X0061900Y0220373D01*
X0062078Y0220803D01*
X0054093Y0229349D01*
X0053587Y0229854D01*
X0053587Y0229890D01*
X0053563Y0229916D01*
X0053587Y0230630D01*
X0053587Y0243399D01*
X0046708Y0249600D01*
X0046654Y0249600D01*
X0046160Y0250094D01*
X0045641Y0250562D01*
X0045638Y0250616D01*
X0045600Y0250654D01*
X0045600Y0251353D01*
X0045576Y0251813D01*
X0043894Y0252510D01*
X0042431Y0253973D01*
X0042061Y0254866D01*
X0042029Y0254768D01*
X0041629Y0253983D01*
X0041111Y0253270D01*
X0040488Y0252647D01*
X0039774Y0252129D01*
X0038989Y0251728D01*
X0038151Y0251456D01*
X0037280Y0251318D01*
X0037039Y0251318D01*
X0037039Y0256718D01*
X0036639Y0256718D01*
X0036639Y0251318D01*
X0036399Y0251318D01*
X0035528Y0251456D01*
X0034690Y0251728D01*
X0033904Y0252129D01*
X0033191Y0252647D01*
X0032568Y0253270D01*
X0032050Y0253983D01*
X0032039Y0254004D01*
X0032039Y0252538D01*
X0031219Y0251718D01*
X0022459Y0251718D01*
X0021639Y0252538D01*
X0021639Y0261298D01*
X0022459Y0262118D01*
X0031219Y0262118D01*
X0032039Y0261298D01*
X0032039Y0259833D01*
X0032050Y0259853D01*
X0032568Y0260566D01*
X0033191Y0261190D01*
X0033904Y0261708D01*
X0034690Y0262108D01*
X0035528Y0262380D01*
X0036399Y0262518D01*
X0036639Y0262518D01*
X0036639Y0257118D01*
X0037039Y0257118D01*
X0037039Y0262518D01*
X0037280Y0262518D01*
X0038151Y0262380D01*
X0038989Y0262108D01*
X0039774Y0261708D01*
X0040488Y0261190D01*
X0041111Y0260566D01*
X0041629Y0259853D01*
X0042029Y0259068D01*
X0042061Y0258970D01*
X0042431Y0259864D01*
X0043894Y0261326D01*
X0045805Y0262118D01*
X0047874Y0262118D01*
X0049785Y0261326D01*
X0051248Y0259864D01*
X0052039Y0257952D01*
X0052039Y0255884D01*
X0051248Y0253973D01*
X0049785Y0252510D01*
X0049200Y0252267D01*
X0049200Y0252201D01*
X0056079Y0246000D01*
X0056133Y0246000D01*
X0056627Y0245506D01*
X0057146Y0245038D01*
X0057149Y0244984D01*
X0057187Y0244946D01*
X0057187Y0244247D01*
X0057224Y0243549D01*
X0057187Y0243508D01*
X0057187Y0231310D01*
X0064321Y0223675D01*
X0065825Y0224298D01*
X0067775Y0224298D01*
X0069500Y0223584D01*
X0069500Y0225213D01*
X0067775Y0224498D01*
X0065825Y0224498D01*
X0064024Y0225244D01*
X0062646Y0226623D01*
X0061900Y0228424D01*
X0061900Y0230373D01*
X0062646Y0232174D01*
X0064024Y0233552D01*
X0065630Y0234218D01*
X0065559Y0234229D01*
X0064766Y0234487D01*
X0064022Y0234865D01*
X0063347Y0235356D01*
X0062757Y0235946D01*
X0062267Y0236621D01*
X0061888Y0237364D01*
X0061630Y0238157D01*
X0061500Y0238981D01*
X0061500Y0239298D01*
X0066700Y0239298D01*
X0066700Y0239498D01*
X0061500Y0239498D01*
X0061500Y0239816D01*
X0061630Y0240640D01*
X0061888Y0241433D01*
X0062267Y0242176D01*
X0062757Y0242851D01*
X0063347Y0243441D01*
X0064022Y0243931D01*
X0064766Y0244310D01*
X0065559Y0244568D01*
X0065630Y0244579D01*
X0064024Y0245244D01*
X0062646Y0246623D01*
X0061900Y0248424D01*
X0061900Y0250373D01*
X0062646Y0252174D01*
X0064024Y0253552D01*
X0064977Y0253947D01*
X0064743Y0253975D01*
X0064743Y0253975D01*
X0063773Y0254645D01*
X0063656Y0254693D01*
X0063552Y0254798D01*
X0062459Y0255552D01*
X0062459Y0255552D01*
X0062459Y0255552D01*
X0061169Y0258010D01*
X0061169Y0260786D01*
X0062459Y0263245D01*
X0062459Y0263245D01*
X0063552Y0263999D01*
X0063656Y0264103D01*
X0063773Y0264152D01*
X0064743Y0264822D01*
X0064743Y0264822D01*
X0065658Y0264933D01*
X0065696Y0264948D01*
X0065788Y0264948D01*
X0067499Y0265156D01*
X0067499Y0265156D01*
X0069500Y0264397D01*
X0069500Y0304535D01*
X0004100Y0304535D01*
X0004100Y0264377D01*
X0004743Y0264822D01*
X0005658Y0264933D01*
X0005696Y0264948D01*
X0005788Y0264948D01*
X0007499Y0265156D01*
X0007499Y0265156D01*
X0010095Y0264172D01*
X0010095Y0264172D01*
X0011936Y0262094D01*
X0011936Y0262094D01*
X0012295Y0260634D01*
X0012350Y0260502D01*
X0012350Y0260413D01*
X0012600Y0259398D01*
X0012600Y0259398D01*
X0012350Y0258384D01*
X0012350Y0258294D01*
X0012295Y0258163D01*
X0011936Y0256703D01*
X0011936Y0256703D01*
X0010095Y0254625D01*
X0010095Y0254625D01*
X0009233Y0254298D01*
X0010880Y0254298D01*
X0011700Y0253478D01*
X0011700Y0245319D01*
X0010880Y0244498D01*
X0004100Y0244498D01*
X0004100Y0243584D01*
X0005825Y0244298D01*
X0007775Y0244298D01*
X0009576Y0243552D01*
X0010954Y0242174D01*
X0011700Y0240373D01*
X0011700Y0238424D01*
X0010954Y0236623D01*
X0009576Y0235244D01*
X0007775Y0234498D01*
X0005825Y0234498D01*
X0004100Y0235213D01*
X0004100Y0233584D01*
X0004101Y0233584D01*
X0004100Y0233584D02*
X0005825Y0234298D01*
X0007775Y0234298D01*
X0009576Y0233552D01*
X0010954Y0232174D01*
X0011700Y0230373D01*
X0011700Y0228424D01*
X0010954Y0226623D01*
X0009576Y0225244D01*
X0007775Y0224498D01*
X0005825Y0224498D01*
X0004100Y0225213D01*
X0004100Y0223584D01*
X0005825Y0224298D01*
X0007775Y0224298D01*
X0009576Y0223552D01*
X0010954Y0222174D01*
X0011700Y0220373D01*
X0011700Y0218424D01*
X0010954Y0216623D01*
X0009576Y0215244D01*
X0007775Y0214498D01*
X0005825Y0214498D01*
X0004100Y0215213D01*
X0004100Y0213584D01*
X0005825Y0214298D01*
X0007775Y0214298D01*
X0009576Y0213552D01*
X0010954Y0212174D01*
X0011700Y0210373D01*
X0011700Y0208424D01*
X0010954Y0206623D01*
X0009576Y0205244D01*
X0007775Y0204498D01*
X0005825Y0204498D01*
X0004100Y0205213D01*
X0004100Y0203584D01*
X0005825Y0204298D01*
X0007775Y0204298D01*
X0009576Y0203552D01*
X0010954Y0202174D01*
X0011700Y0200373D01*
X0011700Y0198424D01*
X0010954Y0196623D01*
X0009576Y0195244D01*
X0007775Y0194498D01*
X0005825Y0194498D01*
X0004100Y0195213D01*
X0004100Y0193584D01*
X0005825Y0194298D01*
X0007775Y0194298D01*
X0009576Y0193552D01*
X0010954Y0192174D01*
X0011700Y0190373D01*
X0011700Y0188424D01*
X0010954Y0186623D01*
X0009576Y0185244D01*
X0007775Y0184498D01*
X0005825Y0184498D01*
X0004100Y0185213D01*
X0004100Y0183584D01*
X0005825Y0184298D01*
X0007775Y0184298D01*
X0009576Y0183552D01*
X0010954Y0182174D01*
X0011700Y0180373D01*
X0011700Y0178424D01*
X0010954Y0176623D01*
X0009576Y0175244D01*
X0007775Y0174498D01*
X0005825Y0174498D01*
X0004100Y0175213D01*
X0004100Y0173584D01*
X0005825Y0174298D01*
X0007775Y0174298D01*
X0009576Y0173552D01*
X0010954Y0172174D01*
X0011700Y0170373D01*
X0011700Y0168424D01*
X0010954Y0166623D01*
X0009576Y0165244D01*
X0007775Y0164498D01*
X0005825Y0164498D01*
X0004100Y0165213D01*
X0004100Y0163584D01*
X0005825Y0164298D01*
X0007775Y0164298D01*
X0009576Y0163552D01*
X0010954Y0162174D01*
X0011700Y0160373D01*
X0011700Y0158424D01*
X0010954Y0156623D01*
X0009576Y0155244D01*
X0007775Y0154498D01*
X0005825Y0154498D01*
X0004100Y0155213D01*
X0004100Y0153584D01*
X0005825Y0154298D01*
X0007775Y0154298D01*
X0009576Y0153552D01*
X0010954Y0152174D01*
X0011700Y0150373D01*
X0011700Y0148424D01*
X0010954Y0146623D01*
X0009576Y0145244D01*
X0007775Y0144498D01*
X0005825Y0144498D01*
X0004100Y0145213D01*
X0004100Y0143584D01*
X0005825Y0144298D01*
X0007775Y0144298D01*
X0009576Y0143552D01*
X0010954Y0142174D01*
X0011700Y0140373D01*
X0011700Y0138424D01*
X0010954Y0136623D01*
X0009576Y0135244D01*
X0007775Y0134498D01*
X0005825Y0134498D01*
X0004100Y0135213D01*
X0004100Y0133584D01*
X0005825Y0134298D01*
X0007775Y0134298D01*
X0009576Y0133552D01*
X0010954Y0132174D01*
X0011700Y0130373D01*
X0011700Y0128424D01*
X0010954Y0126623D01*
X0009576Y0125244D01*
X0007775Y0124498D01*
X0005825Y0124498D01*
X0004100Y0125213D01*
X0004100Y0123584D01*
X0005825Y0124298D01*
X0007775Y0124298D01*
X0009576Y0123552D01*
X0010954Y0122174D01*
X0011700Y0120373D01*
X0011700Y0118424D01*
X0010954Y0116623D01*
X0009576Y0115244D01*
X0007775Y0114498D01*
X0005825Y0114498D01*
X0004100Y0115213D01*
X0004100Y0113584D01*
X0005825Y0114298D01*
X0007775Y0114298D01*
X0009576Y0113552D01*
X0010954Y0112174D01*
X0011700Y0110373D01*
X0011700Y0108424D01*
X0010954Y0106623D01*
X0009576Y0105244D01*
X0008472Y0104787D01*
X0010095Y0104172D01*
X0010095Y0104172D01*
X0011936Y0102094D01*
X0011936Y0102094D01*
X0012295Y0100634D01*
X0012350Y0100502D01*
X0012350Y0100413D01*
X0012600Y0099398D01*
X0012350Y0098384D01*
X0012350Y0098294D01*
X0012295Y0098163D01*
X0011936Y0096703D01*
X0011936Y0096703D01*
X0010095Y0094625D01*
X0010095Y0094625D01*
X0007499Y0093641D01*
X0007499Y0093641D01*
X0005788Y0093848D01*
X0005696Y0093848D01*
X0005658Y0093864D01*
X0004743Y0093975D01*
X0004743Y0093975D01*
X0004100Y0094419D01*
X0004100Y0092915D02*
X0069500Y0092915D01*
X0069500Y0091317D02*
X0004100Y0091317D01*
X0004100Y0089718D02*
X0008621Y0089718D01*
X0008769Y0089866D02*
X0007616Y0088712D01*
X0006991Y0087205D01*
X0006991Y0080174D01*
X0007616Y0078667D01*
X0008769Y0077514D01*
X0010276Y0076890D01*
X0011907Y0076890D01*
X0013414Y0077514D01*
X0014567Y0078667D01*
X0015191Y0080174D01*
X0015191Y0087205D01*
X0014567Y0088712D01*
X0013414Y0089866D01*
X0011907Y0090490D01*
X0010276Y0090490D01*
X0008769Y0089866D01*
X0009801Y0094514D02*
X0063963Y0094514D01*
X0062165Y0096112D02*
X0011412Y0096112D01*
X0012184Y0097711D02*
X0061326Y0097711D01*
X0061169Y0099309D02*
X0012578Y0099309D01*
X0012228Y0100908D02*
X0061232Y0100908D01*
X0062071Y0102506D02*
X0011570Y0102506D01*
X0011235Y0107302D02*
X0062365Y0107302D01*
X0061900Y0108900D02*
X0011700Y0108900D01*
X0011648Y0110499D02*
X0061952Y0110499D01*
X0062614Y0112097D02*
X0010986Y0112097D01*
X0011066Y0116893D02*
X0062534Y0116893D01*
X0061900Y0118491D02*
X0011700Y0118491D01*
X0011700Y0120090D02*
X0061900Y0120090D01*
X0062445Y0121688D02*
X0011155Y0121688D01*
X0009841Y0123287D02*
X0063759Y0123287D01*
X0064891Y0124885D02*
X0008709Y0124885D01*
X0010815Y0126484D02*
X0062785Y0126484D01*
X0062041Y0128082D02*
X0011559Y0128082D01*
X0011700Y0129681D02*
X0061900Y0129681D01*
X0062275Y0131279D02*
X0011325Y0131279D01*
X0010250Y0132878D02*
X0063350Y0132878D01*
X0063194Y0136075D02*
X0010406Y0136075D01*
X0011389Y0137673D02*
X0062211Y0137673D01*
X0061900Y0139272D02*
X0011700Y0139272D01*
X0011494Y0140870D02*
X0062106Y0140870D01*
X0062941Y0142469D02*
X0010659Y0142469D01*
X0009997Y0145666D02*
X0063603Y0145666D01*
X0062380Y0147265D02*
X0011220Y0147265D01*
X0011700Y0148863D02*
X0061900Y0148863D01*
X0061937Y0150462D02*
X0011663Y0150462D01*
X0011001Y0152060D02*
X0062599Y0152060D01*
X0062550Y0156856D02*
X0011050Y0156856D01*
X0011700Y0158454D02*
X0061900Y0158454D01*
X0061900Y0160053D02*
X0011700Y0160053D01*
X0011171Y0161651D02*
X0062429Y0161651D01*
X0062822Y0166447D02*
X0010778Y0166447D01*
X0011543Y0168045D02*
X0062057Y0168045D01*
X0061900Y0169644D02*
X0011700Y0169644D01*
X0011340Y0171242D02*
X0062260Y0171242D01*
X0063313Y0172841D02*
X0010287Y0172841D01*
X0010369Y0176038D02*
X0063231Y0176038D01*
X0062226Y0177636D02*
X0011374Y0177636D01*
X0011700Y0179235D02*
X0061900Y0179235D01*
X0062091Y0180833D02*
X0011509Y0180833D01*
X0010696Y0182432D02*
X0062904Y0182432D01*
X0063640Y0185629D02*
X0009960Y0185629D01*
X0011204Y0187227D02*
X0062396Y0187227D01*
X0061900Y0188826D02*
X0011700Y0188826D01*
X0011679Y0190424D02*
X0061921Y0190424D01*
X0062583Y0192023D02*
X0011017Y0192023D01*
X0011035Y0196818D02*
X0062565Y0196818D01*
X0061903Y0198417D02*
X0011697Y0198417D01*
X0011700Y0200015D02*
X0061900Y0200015D01*
X0062414Y0201614D02*
X0011186Y0201614D01*
X0010741Y0206409D02*
X0062859Y0206409D01*
X0063684Y0203212D02*
X0009916Y0203212D01*
X0008529Y0204811D02*
X0065071Y0204811D01*
X0063275Y0212803D02*
X0010325Y0212803D01*
X0011355Y0211205D02*
X0062245Y0211205D01*
X0061900Y0209606D02*
X0011700Y0209606D01*
X0011528Y0208008D02*
X0062072Y0208008D01*
X0063268Y0216001D02*
X0010332Y0216001D01*
X0011358Y0217599D02*
X0062242Y0217599D01*
X0061900Y0219198D02*
X0011700Y0219198D01*
X0011525Y0220796D02*
X0062075Y0220796D01*
X0060591Y0222395D02*
X0010733Y0222395D01*
X0009923Y0225592D02*
X0057604Y0225592D01*
X0058050Y0230387D02*
X0061906Y0230387D01*
X0061900Y0228789D02*
X0059543Y0228789D01*
X0061037Y0227190D02*
X0062411Y0227190D01*
X0062531Y0225592D02*
X0063677Y0225592D01*
X0064024Y0223993D02*
X0065088Y0223993D01*
X0064101Y0233584D02*
X0057187Y0233584D01*
X0057187Y0231986D02*
X0062568Y0231986D01*
X0062185Y0236781D02*
X0057187Y0236781D01*
X0057187Y0235183D02*
X0063586Y0235183D01*
X0063081Y0243175D02*
X0057187Y0243175D01*
X0057187Y0241577D02*
X0061962Y0241577D01*
X0061526Y0239978D02*
X0057187Y0239978D01*
X0057187Y0238380D02*
X0061595Y0238380D01*
X0062897Y0246372D02*
X0055666Y0246372D01*
X0057187Y0244774D02*
X0065161Y0244774D01*
X0063238Y0252766D02*
X0050041Y0252766D01*
X0050346Y0251168D02*
X0062229Y0251168D01*
X0061900Y0249569D02*
X0052119Y0249569D01*
X0052063Y0244774D02*
X0011155Y0244774D01*
X0011700Y0246372D02*
X0050289Y0246372D01*
X0048516Y0247971D02*
X0011700Y0247971D01*
X0011700Y0249569D02*
X0046743Y0249569D01*
X0045600Y0251168D02*
X0011700Y0251168D01*
X0011700Y0252766D02*
X0021639Y0252766D01*
X0021639Y0254365D02*
X0009408Y0254365D01*
X0011280Y0255963D02*
X0021639Y0255963D01*
X0021639Y0257562D02*
X0012147Y0257562D01*
X0012541Y0259160D02*
X0021639Y0259160D01*
X0021639Y0260759D02*
X0012265Y0260759D01*
X0011702Y0262357D02*
X0035458Y0262357D01*
X0036639Y0262357D02*
X0037039Y0262357D01*
X0037039Y0260759D02*
X0036639Y0260759D01*
X0036639Y0259160D02*
X0037039Y0259160D01*
X0037039Y0257562D02*
X0036639Y0257562D01*
X0036639Y0255963D02*
X0037039Y0255963D01*
X0037039Y0254365D02*
X0036639Y0254365D01*
X0036639Y0252766D02*
X0037039Y0252766D01*
X0038221Y0262357D02*
X0061993Y0262357D01*
X0062459Y0263245D02*
X0062459Y0263245D01*
X0063489Y0263956D02*
X0010286Y0263956D01*
X0009953Y0243175D02*
X0053587Y0243175D01*
X0053587Y0241577D02*
X0011201Y0241577D01*
X0011700Y0239978D02*
X0053587Y0239978D01*
X0053587Y0238380D02*
X0011682Y0238380D01*
X0011020Y0236781D02*
X0053587Y0236781D01*
X0053587Y0235183D02*
X0009427Y0235183D01*
X0009499Y0233584D02*
X0053587Y0233584D01*
X0053587Y0231986D02*
X0011032Y0231986D01*
X0011694Y0230387D02*
X0053579Y0230387D01*
X0054616Y0228789D02*
X0011700Y0228789D01*
X0011189Y0227190D02*
X0056110Y0227190D01*
X0059097Y0223993D02*
X0008512Y0223993D01*
X0005088Y0223993D02*
X0004100Y0223993D01*
X0004100Y0214402D02*
X0069500Y0214402D01*
X0069500Y0204811D02*
X0068529Y0204811D01*
X0069409Y0193621D02*
X0069500Y0193621D01*
X0069500Y0184030D02*
X0068422Y0184030D01*
X0069500Y0174439D02*
X0004100Y0174439D01*
X0004100Y0164848D02*
X0004981Y0164848D01*
X0004281Y0153659D02*
X0004100Y0153659D01*
X0004100Y0144068D02*
X0005268Y0144068D01*
X0004100Y0134476D02*
X0069500Y0134476D01*
X0069500Y0124885D02*
X0068709Y0124885D01*
X0069230Y0113696D02*
X0069500Y0113696D01*
X0064370Y0113696D02*
X0009230Y0113696D01*
X0009626Y0115294D02*
X0063974Y0115294D01*
X0063566Y0105703D02*
X0010034Y0105703D01*
X0010154Y0104105D02*
X0063659Y0104105D01*
X0062459Y0103245D02*
X0062459Y0103245D01*
X0069500Y0089718D02*
X0033561Y0089718D01*
X0033414Y0089866D02*
X0031907Y0090490D01*
X0030276Y0090490D01*
X0028769Y0089866D01*
X0027616Y0088712D01*
X0026991Y0087205D01*
X0026991Y0080174D01*
X0027616Y0078667D01*
X0028769Y0077514D01*
X0030276Y0076890D01*
X0031907Y0076890D01*
X0033414Y0077514D01*
X0034567Y0078667D01*
X0035191Y0080174D01*
X0035191Y0087205D01*
X0034567Y0088712D01*
X0033414Y0089866D01*
X0034813Y0088120D02*
X0069500Y0088120D01*
X0069500Y0086521D02*
X0035191Y0086521D01*
X0035191Y0084923D02*
X0069500Y0084923D01*
X0069500Y0083324D02*
X0035191Y0083324D01*
X0035191Y0081726D02*
X0069500Y0081726D01*
X0069500Y0080127D02*
X0035172Y0080127D01*
X0034428Y0078529D02*
X0069500Y0078529D01*
X0069500Y0076930D02*
X0032004Y0076930D01*
X0032790Y0071136D02*
X0029393Y0071136D01*
X0026991Y0068734D01*
X0026991Y0065338D01*
X0029393Y0062936D01*
X0032790Y0062936D01*
X0035191Y0065338D01*
X0035191Y0068734D01*
X0032790Y0071136D01*
X0033390Y0070536D02*
X0069500Y0070536D01*
X0069500Y0072134D02*
X0004100Y0072134D01*
X0004100Y0070536D02*
X0008793Y0070536D01*
X0009393Y0071136D02*
X0006991Y0068734D01*
X0006991Y0065338D01*
X0009393Y0062936D01*
X0012790Y0062936D01*
X0015191Y0065338D01*
X0015191Y0068734D01*
X0012790Y0071136D01*
X0009393Y0071136D01*
X0010179Y0076930D02*
X0004100Y0076930D01*
X0004100Y0075332D02*
X0069500Y0075332D01*
X0069500Y0073733D02*
X0004100Y0073733D01*
X0004100Y0068937D02*
X0007194Y0068937D01*
X0006991Y0067339D02*
X0004100Y0067339D01*
X0004100Y0065740D02*
X0006991Y0065740D01*
X0008187Y0064142D02*
X0004100Y0064142D01*
X0004100Y0062543D02*
X0040017Y0062543D01*
X0040133Y0062316D02*
X0040549Y0061742D01*
X0041050Y0061242D01*
X0041623Y0060825D01*
X0042254Y0060504D01*
X0042928Y0060285D01*
X0043628Y0060174D01*
X0046582Y0060174D01*
X0046582Y0064574D01*
X0046782Y0064574D01*
X0046782Y0064774D01*
X0053882Y0064774D01*
X0053882Y0065028D01*
X0053771Y0065728D01*
X0053552Y0066401D01*
X0053231Y0067033D01*
X0052814Y0067606D01*
X0052313Y0068106D01*
X0051740Y0068523D01*
X0051109Y0068844D01*
X0050436Y0069063D01*
X0049736Y0069174D01*
X0046782Y0069174D01*
X0046782Y0064774D01*
X0046582Y0064774D01*
X0046582Y0069174D01*
X0043628Y0069174D01*
X0042928Y0069063D01*
X0042254Y0068844D01*
X0041623Y0068523D01*
X0041050Y0068106D01*
X0040549Y0067606D01*
X0040133Y0067033D01*
X0039812Y0066401D01*
X0039593Y0065728D01*
X0039482Y0065028D01*
X0039482Y0064774D01*
X0046582Y0064774D01*
X0046582Y0064574D01*
X0039482Y0064574D01*
X0039482Y0064320D01*
X0039593Y0063620D01*
X0039812Y0062947D01*
X0040133Y0062316D01*
X0039510Y0064142D02*
X0033995Y0064142D01*
X0032955Y0061536D02*
X0031191Y0061536D01*
X0031191Y0057136D01*
X0030991Y0057136D01*
X0030991Y0056936D01*
X0026591Y0056936D01*
X0026591Y0055172D01*
X0029227Y0052536D01*
X0030991Y0052536D01*
X0030991Y0056936D01*
X0031191Y0056936D01*
X0031191Y0052536D01*
X0032955Y0052536D01*
X0035591Y0055172D01*
X0035591Y0056936D01*
X0031191Y0056936D01*
X0031191Y0057136D01*
X0035591Y0057136D01*
X0035591Y0058900D01*
X0032955Y0061536D01*
X0033547Y0060945D02*
X0041459Y0060945D01*
X0043166Y0058774D02*
X0041659Y0058150D01*
X0040506Y0056996D01*
X0039882Y0055490D01*
X0039882Y0053858D01*
X0040506Y0052352D01*
X0041659Y0051198D01*
X0043166Y0050574D01*
X0050197Y0050574D01*
X0051704Y0051198D01*
X0052858Y0052352D01*
X0053482Y0053858D01*
X0053482Y0055490D01*
X0052858Y0056996D01*
X0051704Y0058150D01*
X0050197Y0058774D01*
X0043166Y0058774D01*
X0041258Y0057748D02*
X0035591Y0057748D01*
X0035591Y0056149D02*
X0040155Y0056149D01*
X0039882Y0054551D02*
X0034970Y0054551D01*
X0033371Y0052952D02*
X0040257Y0052952D01*
X0041504Y0051354D02*
X0004100Y0051354D01*
X0004100Y0052952D02*
X0009377Y0052952D01*
X0009393Y0052936D02*
X0012790Y0052936D01*
X0015191Y0055338D01*
X0015191Y0058734D01*
X0012790Y0061136D01*
X0009393Y0061136D01*
X0006991Y0058734D01*
X0006991Y0055338D01*
X0009393Y0052936D01*
X0007778Y0054551D02*
X0004100Y0054551D01*
X0004100Y0056149D02*
X0006991Y0056149D01*
X0006991Y0057748D02*
X0004100Y0057748D01*
X0004100Y0059346D02*
X0007603Y0059346D01*
X0009202Y0060945D02*
X0004100Y0060945D01*
X0004100Y0049755D02*
X0069500Y0049755D01*
X0069500Y0048157D02*
X0004100Y0048157D01*
X0004100Y0046558D02*
X0069500Y0046558D01*
X0069500Y0044960D02*
X0004100Y0044960D01*
X0004100Y0043361D02*
X0069500Y0043361D01*
X0069500Y0041763D02*
X0004100Y0041763D01*
X0004100Y0040164D02*
X0069500Y0040164D01*
X0069500Y0038566D02*
X0004100Y0038566D01*
X0004100Y0036967D02*
X0069500Y0036967D01*
X0069500Y0035369D02*
X0004100Y0035369D01*
X0004100Y0033770D02*
X0069500Y0033770D01*
X0069500Y0032172D02*
X0004100Y0032172D01*
X0004100Y0030573D02*
X0069500Y0030573D01*
X0069500Y0028975D02*
X0004100Y0028975D01*
X0004100Y0027376D02*
X0069500Y0027376D01*
X0069500Y0025778D02*
X0004100Y0025778D01*
X0004100Y0024179D02*
X0069500Y0024179D01*
X0069500Y0022581D02*
X0004100Y0022581D01*
X0004100Y0020982D02*
X0069500Y0020982D01*
X0069500Y0019384D02*
X0004100Y0019384D01*
X0004100Y0017785D02*
X0069500Y0017785D01*
X0069500Y0016187D02*
X0004100Y0016187D01*
X0004100Y0014588D02*
X0069500Y0014588D01*
X0069500Y0012990D02*
X0004100Y0012990D01*
X0004100Y0011391D02*
X0069500Y0011391D01*
X0069500Y0009793D02*
X0004100Y0009793D01*
X0004100Y0008194D02*
X0069500Y0008194D01*
X0069500Y0006596D02*
X0004100Y0006596D01*
X0004100Y0004997D02*
X0069500Y0004997D01*
X0069500Y0051354D02*
X0051860Y0051354D01*
X0053107Y0052952D02*
X0069500Y0052952D01*
X0069500Y0054551D02*
X0053482Y0054551D01*
X0053209Y0056149D02*
X0069500Y0056149D01*
X0069500Y0057748D02*
X0052106Y0057748D01*
X0051109Y0060504D02*
X0051740Y0060825D01*
X0052313Y0061242D01*
X0052814Y0061742D01*
X0053231Y0062316D01*
X0053552Y0062947D01*
X0053771Y0063620D01*
X0053882Y0064320D01*
X0053882Y0064574D01*
X0046782Y0064574D01*
X0046782Y0060174D01*
X0049736Y0060174D01*
X0050436Y0060285D01*
X0051109Y0060504D01*
X0051905Y0060945D02*
X0069500Y0060945D01*
X0069500Y0062543D02*
X0053347Y0062543D01*
X0053854Y0064142D02*
X0069500Y0064142D01*
X0069500Y0065740D02*
X0053767Y0065740D01*
X0053008Y0067339D02*
X0069500Y0067339D01*
X0069500Y0068937D02*
X0050823Y0068937D01*
X0046782Y0068937D02*
X0046582Y0068937D01*
X0046582Y0067339D02*
X0046782Y0067339D01*
X0046782Y0065740D02*
X0046582Y0065740D01*
X0046582Y0064142D02*
X0046782Y0064142D01*
X0046782Y0062543D02*
X0046582Y0062543D01*
X0046582Y0060945D02*
X0046782Y0060945D01*
X0042541Y0068937D02*
X0034988Y0068937D01*
X0035191Y0067339D02*
X0040356Y0067339D01*
X0039597Y0065740D02*
X0035191Y0065740D01*
X0035145Y0059346D02*
X0069500Y0059346D01*
X0069500Y0144068D02*
X0068332Y0144068D01*
X0069319Y0153659D02*
X0069500Y0153659D01*
X0069500Y0164848D02*
X0068619Y0164848D01*
X0064981Y0164848D02*
X0008619Y0164848D01*
X0009878Y0163250D02*
X0063722Y0163250D01*
X0064012Y0155257D02*
X0009588Y0155257D01*
X0009319Y0153659D02*
X0064281Y0153659D01*
X0065268Y0144068D02*
X0008332Y0144068D01*
X0004891Y0124885D02*
X0004100Y0124885D01*
X0004100Y0113696D02*
X0004370Y0113696D01*
X0004100Y0088120D02*
X0007370Y0088120D01*
X0006991Y0086521D02*
X0004100Y0086521D01*
X0004100Y0084923D02*
X0006991Y0084923D01*
X0006991Y0083324D02*
X0004100Y0083324D01*
X0004100Y0081726D02*
X0006991Y0081726D01*
X0007011Y0080127D02*
X0004100Y0080127D01*
X0004100Y0078529D02*
X0007754Y0078529D01*
X0012004Y0076930D02*
X0019147Y0076930D01*
X0019364Y0076819D02*
X0020038Y0076601D01*
X0020737Y0076490D01*
X0020991Y0076490D01*
X0020991Y0083590D01*
X0016591Y0083590D01*
X0016591Y0080636D01*
X0016702Y0079936D01*
X0016921Y0079262D01*
X0017243Y0078631D01*
X0017659Y0078058D01*
X0018160Y0077557D01*
X0018733Y0077141D01*
X0019364Y0076819D01*
X0019393Y0071136D02*
X0016991Y0068734D01*
X0016991Y0065338D01*
X0019393Y0062936D01*
X0022790Y0062936D01*
X0025191Y0065338D01*
X0025191Y0068734D01*
X0022790Y0071136D01*
X0019393Y0071136D01*
X0018793Y0070536D02*
X0013390Y0070536D01*
X0014988Y0068937D02*
X0017194Y0068937D01*
X0016991Y0067339D02*
X0015191Y0067339D01*
X0015191Y0065740D02*
X0016991Y0065740D01*
X0018187Y0064142D02*
X0013995Y0064142D01*
X0014579Y0059346D02*
X0017603Y0059346D01*
X0016991Y0058734D02*
X0016991Y0055338D01*
X0019393Y0052936D01*
X0022790Y0052936D01*
X0025191Y0055338D01*
X0025191Y0058734D01*
X0022790Y0061136D01*
X0019393Y0061136D01*
X0016991Y0058734D01*
X0016991Y0057748D02*
X0015191Y0057748D01*
X0015191Y0056149D02*
X0016991Y0056149D01*
X0017778Y0054551D02*
X0014404Y0054551D01*
X0012806Y0052952D02*
X0019377Y0052952D01*
X0019202Y0060945D02*
X0012981Y0060945D01*
X0014428Y0078529D02*
X0017317Y0078529D01*
X0016672Y0080127D02*
X0015172Y0080127D01*
X0015191Y0081726D02*
X0016591Y0081726D01*
X0016591Y0083324D02*
X0015191Y0083324D01*
X0015191Y0084923D02*
X0016591Y0084923D01*
X0016591Y0083790D02*
X0020991Y0083790D01*
X0020991Y0083590D01*
X0021191Y0083590D01*
X0021191Y0076490D01*
X0021445Y0076490D01*
X0022145Y0076601D01*
X0022819Y0076819D01*
X0023450Y0077141D01*
X0024023Y0077557D01*
X0024524Y0078058D01*
X0024940Y0078631D01*
X0025262Y0079262D01*
X0025481Y0079936D01*
X0025591Y0080636D01*
X0025591Y0083590D01*
X0021191Y0083590D01*
X0021191Y0083790D01*
X0020991Y0083790D01*
X0020991Y0090890D01*
X0020737Y0090890D01*
X0020038Y0090779D01*
X0019364Y0090560D01*
X0018733Y0090238D01*
X0018160Y0089822D01*
X0017659Y0089321D01*
X0017243Y0088748D01*
X0016921Y0088117D01*
X0016702Y0087444D01*
X0016591Y0086744D01*
X0016591Y0083790D01*
X0016591Y0086521D02*
X0015191Y0086521D01*
X0014813Y0088120D02*
X0016922Y0088120D01*
X0018056Y0089718D02*
X0013561Y0089718D01*
X0020991Y0089718D02*
X0021191Y0089718D01*
X0021191Y0090890D02*
X0021191Y0083790D01*
X0025591Y0083790D01*
X0025591Y0086744D01*
X0025481Y0087444D01*
X0025262Y0088117D01*
X0024940Y0088748D01*
X0024524Y0089321D01*
X0024023Y0089822D01*
X0023450Y0090238D01*
X0022819Y0090560D01*
X0022145Y0090779D01*
X0021445Y0090890D01*
X0021191Y0090890D01*
X0021191Y0088120D02*
X0020991Y0088120D01*
X0020991Y0086521D02*
X0021191Y0086521D01*
X0021191Y0084923D02*
X0020991Y0084923D01*
X0020991Y0083324D02*
X0021191Y0083324D01*
X0021191Y0081726D02*
X0020991Y0081726D01*
X0020991Y0080127D02*
X0021191Y0080127D01*
X0021191Y0078529D02*
X0020991Y0078529D01*
X0020991Y0076930D02*
X0021191Y0076930D01*
X0023036Y0076930D02*
X0030179Y0076930D01*
X0028793Y0070536D02*
X0023390Y0070536D01*
X0024988Y0068937D02*
X0027194Y0068937D01*
X0026991Y0067339D02*
X0025191Y0067339D01*
X0025191Y0065740D02*
X0026991Y0065740D01*
X0028187Y0064142D02*
X0023995Y0064142D01*
X0022981Y0060945D02*
X0028636Y0060945D01*
X0029227Y0061536D02*
X0026591Y0058900D01*
X0026591Y0057136D01*
X0030991Y0057136D01*
X0030991Y0061536D01*
X0029227Y0061536D01*
X0030991Y0060945D02*
X0031191Y0060945D01*
X0031191Y0059346D02*
X0030991Y0059346D01*
X0030991Y0057748D02*
X0031191Y0057748D01*
X0031191Y0056149D02*
X0030991Y0056149D01*
X0030991Y0054551D02*
X0031191Y0054551D01*
X0031191Y0052952D02*
X0030991Y0052952D01*
X0028811Y0052952D02*
X0022806Y0052952D01*
X0024404Y0054551D02*
X0027213Y0054551D01*
X0026591Y0056149D02*
X0025191Y0056149D01*
X0025191Y0057748D02*
X0026591Y0057748D01*
X0027038Y0059346D02*
X0024579Y0059346D01*
X0024865Y0078529D02*
X0027754Y0078529D01*
X0027011Y0080127D02*
X0025511Y0080127D01*
X0025591Y0081726D02*
X0026991Y0081726D01*
X0026991Y0083324D02*
X0025591Y0083324D01*
X0025591Y0084923D02*
X0026991Y0084923D01*
X0026991Y0086521D02*
X0025591Y0086521D01*
X0025260Y0088120D02*
X0027370Y0088120D01*
X0028621Y0089718D02*
X0024127Y0089718D01*
X0008422Y0184030D02*
X0065178Y0184030D01*
X0064191Y0193621D02*
X0009409Y0193621D01*
X0009516Y0195220D02*
X0064084Y0195220D01*
X0068512Y0223993D02*
X0069500Y0223993D01*
X0064179Y0254365D02*
X0051410Y0254365D01*
X0052039Y0255963D02*
X0062243Y0255963D01*
X0061404Y0257562D02*
X0052039Y0257562D01*
X0051539Y0259160D02*
X0061169Y0259160D01*
X0061169Y0260759D02*
X0050353Y0260759D01*
X0053893Y0247971D02*
X0062088Y0247971D01*
X0069500Y0265554D02*
X0004100Y0265554D01*
X0004100Y0267153D02*
X0069500Y0267153D01*
X0069500Y0268751D02*
X0004100Y0268751D01*
X0004100Y0270350D02*
X0069500Y0270350D01*
X0069500Y0271948D02*
X0004100Y0271948D01*
X0004100Y0273547D02*
X0069500Y0273547D01*
X0069500Y0275145D02*
X0004100Y0275145D01*
X0004100Y0276744D02*
X0069500Y0276744D01*
X0069500Y0278342D02*
X0004100Y0278342D01*
X0004100Y0279941D02*
X0069500Y0279941D01*
X0069500Y0281539D02*
X0004100Y0281539D01*
X0004100Y0283138D02*
X0069500Y0283138D01*
X0069500Y0284737D02*
X0004100Y0284737D01*
X0004100Y0286335D02*
X0069500Y0286335D01*
X0069500Y0287934D02*
X0004100Y0287934D01*
X0004100Y0289532D02*
X0069500Y0289532D01*
X0069500Y0291131D02*
X0004100Y0291131D01*
X0004100Y0292729D02*
X0069500Y0292729D01*
X0069500Y0294328D02*
X0004100Y0294328D01*
X0004100Y0295926D02*
X0069500Y0295926D01*
X0069500Y0297525D02*
X0004100Y0297525D01*
X0004100Y0299123D02*
X0069500Y0299123D01*
X0069500Y0300722D02*
X0004100Y0300722D01*
X0004100Y0302320D02*
X0069500Y0302320D01*
X0069500Y0303919D02*
X0004100Y0303919D01*
X0004100Y0235183D02*
X0004173Y0235183D01*
X0004100Y0204811D02*
X0005071Y0204811D01*
X0004191Y0193621D02*
X0004100Y0193621D01*
X0004100Y0184030D02*
X0005178Y0184030D01*
X0032039Y0252766D02*
X0033072Y0252766D01*
X0032761Y0260759D02*
X0032039Y0260759D01*
X0040607Y0252766D02*
X0043637Y0252766D01*
X0042269Y0254365D02*
X0041823Y0254365D01*
X0041982Y0259160D02*
X0042140Y0259160D01*
X0043326Y0260759D02*
X0040918Y0260759D01*
X0054950Y0192745D02*
X0054950Y0192351D01*
D18*
X0054950Y0192351D03*
M02*
