G75*
%MOIN*%
%OFA0B0*%
%FSLAX25Y25*%
%IPPOS*%
%LPD*%
%AMOC8*
5,1,8,0,0,1.08239X$1,22.5*
%
%ADD10C,0.00000*%
D10*
X0001800Y0001800D02*
X0001800Y0306835D01*
X0071800Y0306835D01*
X0071800Y0001800D01*
X0001800Y0001800D01*
X0003550Y0099398D02*
X0003552Y0099511D01*
X0003558Y0099625D01*
X0003568Y0099738D01*
X0003582Y0099850D01*
X0003599Y0099962D01*
X0003621Y0100074D01*
X0003647Y0100184D01*
X0003676Y0100294D01*
X0003709Y0100402D01*
X0003746Y0100510D01*
X0003787Y0100615D01*
X0003831Y0100720D01*
X0003879Y0100823D01*
X0003930Y0100924D01*
X0003985Y0101023D01*
X0004044Y0101120D01*
X0004106Y0101215D01*
X0004171Y0101308D01*
X0004239Y0101399D01*
X0004310Y0101487D01*
X0004385Y0101573D01*
X0004462Y0101656D01*
X0004542Y0101736D01*
X0004625Y0101813D01*
X0004711Y0101888D01*
X0004799Y0101959D01*
X0004890Y0102027D01*
X0004983Y0102092D01*
X0005078Y0102154D01*
X0005175Y0102213D01*
X0005274Y0102268D01*
X0005375Y0102319D01*
X0005478Y0102367D01*
X0005583Y0102411D01*
X0005688Y0102452D01*
X0005796Y0102489D01*
X0005904Y0102522D01*
X0006014Y0102551D01*
X0006124Y0102577D01*
X0006236Y0102599D01*
X0006348Y0102616D01*
X0006460Y0102630D01*
X0006573Y0102640D01*
X0006687Y0102646D01*
X0006800Y0102648D01*
X0006913Y0102646D01*
X0007027Y0102640D01*
X0007140Y0102630D01*
X0007252Y0102616D01*
X0007364Y0102599D01*
X0007476Y0102577D01*
X0007586Y0102551D01*
X0007696Y0102522D01*
X0007804Y0102489D01*
X0007912Y0102452D01*
X0008017Y0102411D01*
X0008122Y0102367D01*
X0008225Y0102319D01*
X0008326Y0102268D01*
X0008425Y0102213D01*
X0008522Y0102154D01*
X0008617Y0102092D01*
X0008710Y0102027D01*
X0008801Y0101959D01*
X0008889Y0101888D01*
X0008975Y0101813D01*
X0009058Y0101736D01*
X0009138Y0101656D01*
X0009215Y0101573D01*
X0009290Y0101487D01*
X0009361Y0101399D01*
X0009429Y0101308D01*
X0009494Y0101215D01*
X0009556Y0101120D01*
X0009615Y0101023D01*
X0009670Y0100924D01*
X0009721Y0100823D01*
X0009769Y0100720D01*
X0009813Y0100615D01*
X0009854Y0100510D01*
X0009891Y0100402D01*
X0009924Y0100294D01*
X0009953Y0100184D01*
X0009979Y0100074D01*
X0010001Y0099962D01*
X0010018Y0099850D01*
X0010032Y0099738D01*
X0010042Y0099625D01*
X0010048Y0099511D01*
X0010050Y0099398D01*
X0010048Y0099285D01*
X0010042Y0099171D01*
X0010032Y0099058D01*
X0010018Y0098946D01*
X0010001Y0098834D01*
X0009979Y0098722D01*
X0009953Y0098612D01*
X0009924Y0098502D01*
X0009891Y0098394D01*
X0009854Y0098286D01*
X0009813Y0098181D01*
X0009769Y0098076D01*
X0009721Y0097973D01*
X0009670Y0097872D01*
X0009615Y0097773D01*
X0009556Y0097676D01*
X0009494Y0097581D01*
X0009429Y0097488D01*
X0009361Y0097397D01*
X0009290Y0097309D01*
X0009215Y0097223D01*
X0009138Y0097140D01*
X0009058Y0097060D01*
X0008975Y0096983D01*
X0008889Y0096908D01*
X0008801Y0096837D01*
X0008710Y0096769D01*
X0008617Y0096704D01*
X0008522Y0096642D01*
X0008425Y0096583D01*
X0008326Y0096528D01*
X0008225Y0096477D01*
X0008122Y0096429D01*
X0008017Y0096385D01*
X0007912Y0096344D01*
X0007804Y0096307D01*
X0007696Y0096274D01*
X0007586Y0096245D01*
X0007476Y0096219D01*
X0007364Y0096197D01*
X0007252Y0096180D01*
X0007140Y0096166D01*
X0007027Y0096156D01*
X0006913Y0096150D01*
X0006800Y0096148D01*
X0006687Y0096150D01*
X0006573Y0096156D01*
X0006460Y0096166D01*
X0006348Y0096180D01*
X0006236Y0096197D01*
X0006124Y0096219D01*
X0006014Y0096245D01*
X0005904Y0096274D01*
X0005796Y0096307D01*
X0005688Y0096344D01*
X0005583Y0096385D01*
X0005478Y0096429D01*
X0005375Y0096477D01*
X0005274Y0096528D01*
X0005175Y0096583D01*
X0005078Y0096642D01*
X0004983Y0096704D01*
X0004890Y0096769D01*
X0004799Y0096837D01*
X0004711Y0096908D01*
X0004625Y0096983D01*
X0004542Y0097060D01*
X0004462Y0097140D01*
X0004385Y0097223D01*
X0004310Y0097309D01*
X0004239Y0097397D01*
X0004171Y0097488D01*
X0004106Y0097581D01*
X0004044Y0097676D01*
X0003985Y0097773D01*
X0003930Y0097872D01*
X0003879Y0097973D01*
X0003831Y0098076D01*
X0003787Y0098181D01*
X0003746Y0098286D01*
X0003709Y0098394D01*
X0003676Y0098502D01*
X0003647Y0098612D01*
X0003621Y0098722D01*
X0003599Y0098834D01*
X0003582Y0098946D01*
X0003568Y0099058D01*
X0003558Y0099171D01*
X0003552Y0099285D01*
X0003550Y0099398D01*
X0003550Y0259398D02*
X0003552Y0259511D01*
X0003558Y0259625D01*
X0003568Y0259738D01*
X0003582Y0259850D01*
X0003599Y0259962D01*
X0003621Y0260074D01*
X0003647Y0260184D01*
X0003676Y0260294D01*
X0003709Y0260402D01*
X0003746Y0260510D01*
X0003787Y0260615D01*
X0003831Y0260720D01*
X0003879Y0260823D01*
X0003930Y0260924D01*
X0003985Y0261023D01*
X0004044Y0261120D01*
X0004106Y0261215D01*
X0004171Y0261308D01*
X0004239Y0261399D01*
X0004310Y0261487D01*
X0004385Y0261573D01*
X0004462Y0261656D01*
X0004542Y0261736D01*
X0004625Y0261813D01*
X0004711Y0261888D01*
X0004799Y0261959D01*
X0004890Y0262027D01*
X0004983Y0262092D01*
X0005078Y0262154D01*
X0005175Y0262213D01*
X0005274Y0262268D01*
X0005375Y0262319D01*
X0005478Y0262367D01*
X0005583Y0262411D01*
X0005688Y0262452D01*
X0005796Y0262489D01*
X0005904Y0262522D01*
X0006014Y0262551D01*
X0006124Y0262577D01*
X0006236Y0262599D01*
X0006348Y0262616D01*
X0006460Y0262630D01*
X0006573Y0262640D01*
X0006687Y0262646D01*
X0006800Y0262648D01*
X0006913Y0262646D01*
X0007027Y0262640D01*
X0007140Y0262630D01*
X0007252Y0262616D01*
X0007364Y0262599D01*
X0007476Y0262577D01*
X0007586Y0262551D01*
X0007696Y0262522D01*
X0007804Y0262489D01*
X0007912Y0262452D01*
X0008017Y0262411D01*
X0008122Y0262367D01*
X0008225Y0262319D01*
X0008326Y0262268D01*
X0008425Y0262213D01*
X0008522Y0262154D01*
X0008617Y0262092D01*
X0008710Y0262027D01*
X0008801Y0261959D01*
X0008889Y0261888D01*
X0008975Y0261813D01*
X0009058Y0261736D01*
X0009138Y0261656D01*
X0009215Y0261573D01*
X0009290Y0261487D01*
X0009361Y0261399D01*
X0009429Y0261308D01*
X0009494Y0261215D01*
X0009556Y0261120D01*
X0009615Y0261023D01*
X0009670Y0260924D01*
X0009721Y0260823D01*
X0009769Y0260720D01*
X0009813Y0260615D01*
X0009854Y0260510D01*
X0009891Y0260402D01*
X0009924Y0260294D01*
X0009953Y0260184D01*
X0009979Y0260074D01*
X0010001Y0259962D01*
X0010018Y0259850D01*
X0010032Y0259738D01*
X0010042Y0259625D01*
X0010048Y0259511D01*
X0010050Y0259398D01*
X0010048Y0259285D01*
X0010042Y0259171D01*
X0010032Y0259058D01*
X0010018Y0258946D01*
X0010001Y0258834D01*
X0009979Y0258722D01*
X0009953Y0258612D01*
X0009924Y0258502D01*
X0009891Y0258394D01*
X0009854Y0258286D01*
X0009813Y0258181D01*
X0009769Y0258076D01*
X0009721Y0257973D01*
X0009670Y0257872D01*
X0009615Y0257773D01*
X0009556Y0257676D01*
X0009494Y0257581D01*
X0009429Y0257488D01*
X0009361Y0257397D01*
X0009290Y0257309D01*
X0009215Y0257223D01*
X0009138Y0257140D01*
X0009058Y0257060D01*
X0008975Y0256983D01*
X0008889Y0256908D01*
X0008801Y0256837D01*
X0008710Y0256769D01*
X0008617Y0256704D01*
X0008522Y0256642D01*
X0008425Y0256583D01*
X0008326Y0256528D01*
X0008225Y0256477D01*
X0008122Y0256429D01*
X0008017Y0256385D01*
X0007912Y0256344D01*
X0007804Y0256307D01*
X0007696Y0256274D01*
X0007586Y0256245D01*
X0007476Y0256219D01*
X0007364Y0256197D01*
X0007252Y0256180D01*
X0007140Y0256166D01*
X0007027Y0256156D01*
X0006913Y0256150D01*
X0006800Y0256148D01*
X0006687Y0256150D01*
X0006573Y0256156D01*
X0006460Y0256166D01*
X0006348Y0256180D01*
X0006236Y0256197D01*
X0006124Y0256219D01*
X0006014Y0256245D01*
X0005904Y0256274D01*
X0005796Y0256307D01*
X0005688Y0256344D01*
X0005583Y0256385D01*
X0005478Y0256429D01*
X0005375Y0256477D01*
X0005274Y0256528D01*
X0005175Y0256583D01*
X0005078Y0256642D01*
X0004983Y0256704D01*
X0004890Y0256769D01*
X0004799Y0256837D01*
X0004711Y0256908D01*
X0004625Y0256983D01*
X0004542Y0257060D01*
X0004462Y0257140D01*
X0004385Y0257223D01*
X0004310Y0257309D01*
X0004239Y0257397D01*
X0004171Y0257488D01*
X0004106Y0257581D01*
X0004044Y0257676D01*
X0003985Y0257773D01*
X0003930Y0257872D01*
X0003879Y0257973D01*
X0003831Y0258076D01*
X0003787Y0258181D01*
X0003746Y0258286D01*
X0003709Y0258394D01*
X0003676Y0258502D01*
X0003647Y0258612D01*
X0003621Y0258722D01*
X0003599Y0258834D01*
X0003582Y0258946D01*
X0003568Y0259058D01*
X0003558Y0259171D01*
X0003552Y0259285D01*
X0003550Y0259398D01*
X0063550Y0259398D02*
X0063552Y0259511D01*
X0063558Y0259625D01*
X0063568Y0259738D01*
X0063582Y0259850D01*
X0063599Y0259962D01*
X0063621Y0260074D01*
X0063647Y0260184D01*
X0063676Y0260294D01*
X0063709Y0260402D01*
X0063746Y0260510D01*
X0063787Y0260615D01*
X0063831Y0260720D01*
X0063879Y0260823D01*
X0063930Y0260924D01*
X0063985Y0261023D01*
X0064044Y0261120D01*
X0064106Y0261215D01*
X0064171Y0261308D01*
X0064239Y0261399D01*
X0064310Y0261487D01*
X0064385Y0261573D01*
X0064462Y0261656D01*
X0064542Y0261736D01*
X0064625Y0261813D01*
X0064711Y0261888D01*
X0064799Y0261959D01*
X0064890Y0262027D01*
X0064983Y0262092D01*
X0065078Y0262154D01*
X0065175Y0262213D01*
X0065274Y0262268D01*
X0065375Y0262319D01*
X0065478Y0262367D01*
X0065583Y0262411D01*
X0065688Y0262452D01*
X0065796Y0262489D01*
X0065904Y0262522D01*
X0066014Y0262551D01*
X0066124Y0262577D01*
X0066236Y0262599D01*
X0066348Y0262616D01*
X0066460Y0262630D01*
X0066573Y0262640D01*
X0066687Y0262646D01*
X0066800Y0262648D01*
X0066913Y0262646D01*
X0067027Y0262640D01*
X0067140Y0262630D01*
X0067252Y0262616D01*
X0067364Y0262599D01*
X0067476Y0262577D01*
X0067586Y0262551D01*
X0067696Y0262522D01*
X0067804Y0262489D01*
X0067912Y0262452D01*
X0068017Y0262411D01*
X0068122Y0262367D01*
X0068225Y0262319D01*
X0068326Y0262268D01*
X0068425Y0262213D01*
X0068522Y0262154D01*
X0068617Y0262092D01*
X0068710Y0262027D01*
X0068801Y0261959D01*
X0068889Y0261888D01*
X0068975Y0261813D01*
X0069058Y0261736D01*
X0069138Y0261656D01*
X0069215Y0261573D01*
X0069290Y0261487D01*
X0069361Y0261399D01*
X0069429Y0261308D01*
X0069494Y0261215D01*
X0069556Y0261120D01*
X0069615Y0261023D01*
X0069670Y0260924D01*
X0069721Y0260823D01*
X0069769Y0260720D01*
X0069813Y0260615D01*
X0069854Y0260510D01*
X0069891Y0260402D01*
X0069924Y0260294D01*
X0069953Y0260184D01*
X0069979Y0260074D01*
X0070001Y0259962D01*
X0070018Y0259850D01*
X0070032Y0259738D01*
X0070042Y0259625D01*
X0070048Y0259511D01*
X0070050Y0259398D01*
X0070048Y0259285D01*
X0070042Y0259171D01*
X0070032Y0259058D01*
X0070018Y0258946D01*
X0070001Y0258834D01*
X0069979Y0258722D01*
X0069953Y0258612D01*
X0069924Y0258502D01*
X0069891Y0258394D01*
X0069854Y0258286D01*
X0069813Y0258181D01*
X0069769Y0258076D01*
X0069721Y0257973D01*
X0069670Y0257872D01*
X0069615Y0257773D01*
X0069556Y0257676D01*
X0069494Y0257581D01*
X0069429Y0257488D01*
X0069361Y0257397D01*
X0069290Y0257309D01*
X0069215Y0257223D01*
X0069138Y0257140D01*
X0069058Y0257060D01*
X0068975Y0256983D01*
X0068889Y0256908D01*
X0068801Y0256837D01*
X0068710Y0256769D01*
X0068617Y0256704D01*
X0068522Y0256642D01*
X0068425Y0256583D01*
X0068326Y0256528D01*
X0068225Y0256477D01*
X0068122Y0256429D01*
X0068017Y0256385D01*
X0067912Y0256344D01*
X0067804Y0256307D01*
X0067696Y0256274D01*
X0067586Y0256245D01*
X0067476Y0256219D01*
X0067364Y0256197D01*
X0067252Y0256180D01*
X0067140Y0256166D01*
X0067027Y0256156D01*
X0066913Y0256150D01*
X0066800Y0256148D01*
X0066687Y0256150D01*
X0066573Y0256156D01*
X0066460Y0256166D01*
X0066348Y0256180D01*
X0066236Y0256197D01*
X0066124Y0256219D01*
X0066014Y0256245D01*
X0065904Y0256274D01*
X0065796Y0256307D01*
X0065688Y0256344D01*
X0065583Y0256385D01*
X0065478Y0256429D01*
X0065375Y0256477D01*
X0065274Y0256528D01*
X0065175Y0256583D01*
X0065078Y0256642D01*
X0064983Y0256704D01*
X0064890Y0256769D01*
X0064799Y0256837D01*
X0064711Y0256908D01*
X0064625Y0256983D01*
X0064542Y0257060D01*
X0064462Y0257140D01*
X0064385Y0257223D01*
X0064310Y0257309D01*
X0064239Y0257397D01*
X0064171Y0257488D01*
X0064106Y0257581D01*
X0064044Y0257676D01*
X0063985Y0257773D01*
X0063930Y0257872D01*
X0063879Y0257973D01*
X0063831Y0258076D01*
X0063787Y0258181D01*
X0063746Y0258286D01*
X0063709Y0258394D01*
X0063676Y0258502D01*
X0063647Y0258612D01*
X0063621Y0258722D01*
X0063599Y0258834D01*
X0063582Y0258946D01*
X0063568Y0259058D01*
X0063558Y0259171D01*
X0063552Y0259285D01*
X0063550Y0259398D01*
X0063550Y0099398D02*
X0063552Y0099511D01*
X0063558Y0099625D01*
X0063568Y0099738D01*
X0063582Y0099850D01*
X0063599Y0099962D01*
X0063621Y0100074D01*
X0063647Y0100184D01*
X0063676Y0100294D01*
X0063709Y0100402D01*
X0063746Y0100510D01*
X0063787Y0100615D01*
X0063831Y0100720D01*
X0063879Y0100823D01*
X0063930Y0100924D01*
X0063985Y0101023D01*
X0064044Y0101120D01*
X0064106Y0101215D01*
X0064171Y0101308D01*
X0064239Y0101399D01*
X0064310Y0101487D01*
X0064385Y0101573D01*
X0064462Y0101656D01*
X0064542Y0101736D01*
X0064625Y0101813D01*
X0064711Y0101888D01*
X0064799Y0101959D01*
X0064890Y0102027D01*
X0064983Y0102092D01*
X0065078Y0102154D01*
X0065175Y0102213D01*
X0065274Y0102268D01*
X0065375Y0102319D01*
X0065478Y0102367D01*
X0065583Y0102411D01*
X0065688Y0102452D01*
X0065796Y0102489D01*
X0065904Y0102522D01*
X0066014Y0102551D01*
X0066124Y0102577D01*
X0066236Y0102599D01*
X0066348Y0102616D01*
X0066460Y0102630D01*
X0066573Y0102640D01*
X0066687Y0102646D01*
X0066800Y0102648D01*
X0066913Y0102646D01*
X0067027Y0102640D01*
X0067140Y0102630D01*
X0067252Y0102616D01*
X0067364Y0102599D01*
X0067476Y0102577D01*
X0067586Y0102551D01*
X0067696Y0102522D01*
X0067804Y0102489D01*
X0067912Y0102452D01*
X0068017Y0102411D01*
X0068122Y0102367D01*
X0068225Y0102319D01*
X0068326Y0102268D01*
X0068425Y0102213D01*
X0068522Y0102154D01*
X0068617Y0102092D01*
X0068710Y0102027D01*
X0068801Y0101959D01*
X0068889Y0101888D01*
X0068975Y0101813D01*
X0069058Y0101736D01*
X0069138Y0101656D01*
X0069215Y0101573D01*
X0069290Y0101487D01*
X0069361Y0101399D01*
X0069429Y0101308D01*
X0069494Y0101215D01*
X0069556Y0101120D01*
X0069615Y0101023D01*
X0069670Y0100924D01*
X0069721Y0100823D01*
X0069769Y0100720D01*
X0069813Y0100615D01*
X0069854Y0100510D01*
X0069891Y0100402D01*
X0069924Y0100294D01*
X0069953Y0100184D01*
X0069979Y0100074D01*
X0070001Y0099962D01*
X0070018Y0099850D01*
X0070032Y0099738D01*
X0070042Y0099625D01*
X0070048Y0099511D01*
X0070050Y0099398D01*
X0070048Y0099285D01*
X0070042Y0099171D01*
X0070032Y0099058D01*
X0070018Y0098946D01*
X0070001Y0098834D01*
X0069979Y0098722D01*
X0069953Y0098612D01*
X0069924Y0098502D01*
X0069891Y0098394D01*
X0069854Y0098286D01*
X0069813Y0098181D01*
X0069769Y0098076D01*
X0069721Y0097973D01*
X0069670Y0097872D01*
X0069615Y0097773D01*
X0069556Y0097676D01*
X0069494Y0097581D01*
X0069429Y0097488D01*
X0069361Y0097397D01*
X0069290Y0097309D01*
X0069215Y0097223D01*
X0069138Y0097140D01*
X0069058Y0097060D01*
X0068975Y0096983D01*
X0068889Y0096908D01*
X0068801Y0096837D01*
X0068710Y0096769D01*
X0068617Y0096704D01*
X0068522Y0096642D01*
X0068425Y0096583D01*
X0068326Y0096528D01*
X0068225Y0096477D01*
X0068122Y0096429D01*
X0068017Y0096385D01*
X0067912Y0096344D01*
X0067804Y0096307D01*
X0067696Y0096274D01*
X0067586Y0096245D01*
X0067476Y0096219D01*
X0067364Y0096197D01*
X0067252Y0096180D01*
X0067140Y0096166D01*
X0067027Y0096156D01*
X0066913Y0096150D01*
X0066800Y0096148D01*
X0066687Y0096150D01*
X0066573Y0096156D01*
X0066460Y0096166D01*
X0066348Y0096180D01*
X0066236Y0096197D01*
X0066124Y0096219D01*
X0066014Y0096245D01*
X0065904Y0096274D01*
X0065796Y0096307D01*
X0065688Y0096344D01*
X0065583Y0096385D01*
X0065478Y0096429D01*
X0065375Y0096477D01*
X0065274Y0096528D01*
X0065175Y0096583D01*
X0065078Y0096642D01*
X0064983Y0096704D01*
X0064890Y0096769D01*
X0064799Y0096837D01*
X0064711Y0096908D01*
X0064625Y0096983D01*
X0064542Y0097060D01*
X0064462Y0097140D01*
X0064385Y0097223D01*
X0064310Y0097309D01*
X0064239Y0097397D01*
X0064171Y0097488D01*
X0064106Y0097581D01*
X0064044Y0097676D01*
X0063985Y0097773D01*
X0063930Y0097872D01*
X0063879Y0097973D01*
X0063831Y0098076D01*
X0063787Y0098181D01*
X0063746Y0098286D01*
X0063709Y0098394D01*
X0063676Y0098502D01*
X0063647Y0098612D01*
X0063621Y0098722D01*
X0063599Y0098834D01*
X0063582Y0098946D01*
X0063568Y0099058D01*
X0063558Y0099171D01*
X0063552Y0099285D01*
X0063550Y0099398D01*
M02*
