G75*
%MOIN*%
%OFA0B0*%
%FSLAX25Y25*%
%IPPOS*%
%LPD*%
%AMOC8*
5,1,8,0,0,1.08239X$1,22.5*
%
%ADD10C,0.07100*%
%ADD11R,0.07600X0.07600*%
%ADD12C,0.07600*%
%ADD13R,0.08474X0.06899*%
%ADD14R,0.06899X0.08474*%
%ADD15R,0.21860X0.25009*%
%ADD16R,0.04537X0.06899*%
%ADD17R,0.12017X0.08080*%
%ADD18R,0.08080X0.12017*%
%ADD19R,0.08200X0.08200*%
%ADD20C,0.08200*%
%ADD21R,0.06900X0.05200*%
%ADD22R,0.07200X0.00600*%
%ADD23C,0.06000*%
%ADD24OC8,0.06000*%
%ADD25R,0.04362X0.04362*%
D10*
X0006800Y0099398D03*
X0006800Y0259398D03*
X0066800Y0259398D03*
X0066800Y0099398D03*
D11*
X0006800Y0249398D03*
D12*
X0006800Y0239398D03*
X0006800Y0229398D03*
X0006800Y0219398D03*
X0006800Y0209398D03*
X0006800Y0199398D03*
X0006800Y0189398D03*
X0006800Y0179398D03*
X0006800Y0169398D03*
X0006800Y0159398D03*
X0006800Y0149398D03*
X0006800Y0139398D03*
X0006800Y0129398D03*
X0006800Y0119398D03*
X0006800Y0109398D03*
X0066800Y0109398D03*
X0066800Y0119398D03*
X0066800Y0129398D03*
X0066800Y0139398D03*
X0066800Y0149398D03*
X0066800Y0159398D03*
X0066800Y0169398D03*
X0066800Y0179398D03*
X0066800Y0189398D03*
X0066800Y0199398D03*
X0066800Y0209398D03*
X0066800Y0219398D03*
X0066800Y0229398D03*
X0066800Y0239398D03*
X0066800Y0249398D03*
D13*
X0033430Y0038670D03*
X0033430Y0027646D03*
D14*
X0037312Y0280379D03*
X0026288Y0280379D03*
D15*
X0036619Y0217662D03*
D16*
X0045595Y0188922D03*
X0027643Y0188922D03*
D17*
X0013217Y0276800D03*
X0013217Y0289005D03*
X0060855Y0289398D03*
X0060855Y0277194D03*
X0058493Y0039398D03*
X0058493Y0027194D03*
X0017154Y0027194D03*
X0017154Y0039398D03*
D18*
X0031131Y0012824D03*
X0043335Y0012824D03*
X0042942Y0296288D03*
X0030737Y0296288D03*
D19*
X0026839Y0256918D03*
D20*
X0036839Y0256918D03*
X0046839Y0256918D03*
D21*
X0046682Y0277146D03*
X0046682Y0283146D03*
X0044713Y0036690D03*
X0044713Y0030690D03*
D22*
X0044713Y0033690D03*
X0046682Y0280146D03*
D23*
X0031091Y0086390D02*
X0031091Y0080990D01*
X0021091Y0080990D02*
X0021091Y0086390D01*
X0011091Y0086390D02*
X0011091Y0080990D01*
X0043982Y0064674D02*
X0049382Y0064674D01*
X0049382Y0054674D02*
X0043982Y0054674D01*
D24*
X0011091Y0057036D03*
X0011091Y0067036D03*
X0021091Y0067036D03*
X0021091Y0057036D03*
X0031091Y0057036D03*
X0031091Y0067036D03*
D25*
X0054950Y0192351D03*
M02*
